<svg width="751" height="495" viewBox="0 0 751 495" fill="none" xmlns="http://www.w3.org/2000/svg">
<path d="M115.339 476.044C115.961 483.073 121.575 491.987 131.304 491.987H137.004C139.211 491.987 141.011 490.187 141.011 487.98V362.815H140.989C140.882 360.715 139.125 359.023 137.004 359.023H119.346C117.204 359.023 115.468 360.715 115.361 362.815H115.339V372.994C104.518 359.665 87.4822 354.158 70.3822 354.158C31.5107 354.137 0.0107422 385.637 0.0107422 424.487C0.0107422 463.358 31.5107 494.858 70.3822 494.858C87.4607 494.858 106.104 488.237 115.339 476.044ZM70.4465 470.237C45.7393 470.237 25.7036 449.751 25.7036 424.487C25.7036 399.223 45.7393 378.758 70.4465 378.758C95.1536 378.758 115.189 399.244 115.189 424.487C115.189 449.751 95.1536 470.237 70.4465 470.237Z" fill="white"/>
<path d="M402.868 476.044C403.489 483.072 409.103 491.987 418.832 491.987H424.532C426.739 491.987 428.539 490.187 428.539 487.98V362.815H428.518C428.411 360.715 426.653 359.022 424.532 359.022H406.875C404.732 359.022 402.996 360.715 402.868 362.815V362.815V372.994C392.046 359.665 375.011 354.158 357.911 354.158C319.061 354.158 287.539 385.658 287.539 424.53C287.539 463.401 319.039 494.901 357.911 494.901C375.011 494.858 393.653 488.237 402.868 476.044ZM357.996 470.237C333.289 470.237 313.253 449.751 313.253 424.487C313.253 399.222 333.289 378.758 357.996 378.758C382.703 378.758 402.739 399.244 402.739 424.487C402.739 449.751 382.703 470.237 357.996 470.237Z" fill="white"/>
<path d="M724.319 476.044C724.94 483.072 730.555 491.987 740.283 491.987H745.983C748.19 491.987 750.012 490.187 750.012 487.98V362.815H749.99C749.883 360.715 748.126 359.022 746.005 359.022H728.347C726.205 359.022 724.469 360.715 724.362 362.815H724.34V372.994C713.519 359.665 696.483 354.158 679.383 354.158C640.512 354.158 609.012 385.658 609.012 424.53C609.012 463.401 640.512 494.901 679.383 494.901C696.462 494.858 715.083 488.237 724.319 476.044ZM679.426 470.237C654.719 470.237 634.683 449.751 634.683 424.487C634.683 399.222 654.719 378.758 679.426 378.758C704.133 378.758 724.169 399.244 724.169 424.487C724.19 449.751 704.155 470.237 679.426 470.237Z" fill="white"/>
<path d="M586.683 480.33V415.552C586.683 379.037 563.647 354.416 526.918 354.416C509.39 354.416 493.34 364.466 489.933 373.273C488.84 366.459 485.218 359.302 474.011 359.302H468.29C466.083 359.302 464.283 361.102 464.283 363.33V476.345V476.366V488.28V488.494H464.304C464.411 490.594 466.168 492.287 468.29 492.287H480.247H485.947C486.226 492.287 486.483 492.266 486.74 492.202C486.847 492.18 486.976 492.137 487.083 492.094C487.211 492.052 487.34 492.03 487.468 491.966C487.618 491.902 487.768 491.816 487.918 491.73C487.983 491.687 488.068 491.644 488.133 491.602C488.304 491.494 488.476 491.345 488.626 491.216C488.647 491.195 488.69 491.173 488.711 491.152C488.883 490.98 489.054 490.787 489.183 490.594C489.633 489.994 489.89 489.266 489.933 488.473H489.954V488.259V480.309V478.23V414.545C489.954 394.937 505.854 379.037 525.461 379.037C545.068 379.037 560.968 394.937 560.968 414.545L560.99 476.345V476.323C560.99 476.387 560.99 476.43 560.99 476.494V488.259V488.473H561.011C561.118 490.573 562.876 492.266 564.997 492.266H576.954H582.654C582.933 492.266 583.19 492.244 583.447 492.18C583.554 492.159 583.64 492.116 583.747 492.094C583.897 492.052 584.047 492.009 584.175 491.966C584.325 491.902 584.454 491.816 584.583 491.752C584.668 491.709 584.754 491.666 584.84 491.623C585.011 491.516 585.161 491.387 585.29 491.259C585.333 491.216 585.375 491.194 585.397 491.173C585.568 491.002 585.718 490.83 585.847 490.659C585.847 490.637 585.868 490.637 585.868 490.616C586.297 490.016 586.576 489.287 586.618 488.516H586.64V488.302L586.683 480.33Z" fill="white"/>
<path d="M183.182 458.108C194.968 466.272 207.825 470.237 220.189 470.237C231.954 470.237 244.125 464.13 244.125 453.501C244.125 439.315 217.597 437.108 200.947 431.451C184.275 425.794 169.918 414.072 169.918 395.13C169.918 366.115 195.761 354.137 219.889 354.137C235.168 354.137 250.939 359.172 261.182 366.394C264.697 369.072 262.554 372.137 262.554 372.137L252.782 386.087C251.689 387.651 249.761 389.022 247.018 387.308C244.254 385.615 234.611 378.78 219.889 378.78C205.168 378.78 196.297 385.572 196.297 393.994C196.297 404.108 207.825 407.28 221.325 410.73C244.854 417.072 270.504 424.701 270.504 453.522C270.504 479.087 246.589 494.88 220.168 494.88C200.132 494.88 183.097 489.18 168.804 478.68C165.825 475.701 167.904 472.937 167.904 472.937L177.611 459.072C179.604 456.458 182.089 457.358 183.182 458.108Z" fill="white"/>
<path d="M436.875 62.6439C436.875 96.7367 409.232 124.401 375.139 124.401C341.025 124.401 313.382 96.7582 313.382 62.6439C313.382 28.5296 341.025 0.886719 375.139 0.886719C409.232 0.886719 436.875 28.5296 436.875 62.6439ZM294.91 139.83C260.818 139.83 233.153 167.472 233.153 201.565C233.153 235.658 260.796 263.322 294.91 263.322C329.025 263.322 356.668 235.68 356.668 201.565C356.668 167.472 329.025 139.83 294.91 139.83ZM455.346 139.83C421.232 139.83 393.589 167.472 393.589 201.587C393.589 235.701 421.232 263.344 455.346 263.344C489.439 263.344 517.103 235.701 517.103 201.587C517.103 167.472 489.46 139.83 455.346 139.83Z" fill="#F06A6A"/>
</svg>
