<?xml version="1.0" encoding="UTF-8" standalone="no"?>
<!-- Created with Inkscape (http://www.inkscape.org/) -->
<svg xmlns:dc="http://purl.org/dc/elements/1.1/" xmlns:cc="http://creativecommons.org/ns#" xmlns:rdf="http://www.w3.org/1999/02/22-rdf-syntax-ns#" xmlns:svg="http://www.w3.org/2000/svg" xmlns="http://www.w3.org/2000/svg" xmlns:sodipodi="http://sodipodi.sourceforge.net/DTD/sodipodi-0.dtd" xmlns:inkscape="http://www.inkscape.org/namespaces/inkscape" id="svg2" version="1.1" inkscape:version="0.91 r13725" xml:space="preserve" width="272.96249" height="114.0125" viewBox="0 0 272.96249 114.0125" sodipodi:docname="Git-logo-orange.svg"><metadata id="metadata8"><rdf:RDF><cc:Work rdf:about=""><dc:format>image/svg+xml</dc:format><dc:type rdf:resource="http://purl.org/dc/dcmitype/StillImage"/><dc:title/></cc:Work></rdf:RDF></metadata><defs id="defs6"/><sodipodi:namedview pagecolor="#ffffff" bordercolor="#666666" borderopacity="1" objecttolerance="10" gridtolerance="10" guidetolerance="10" inkscape:pageopacity="0" inkscape:pageshadow="2" inkscape:window-width="702" inkscape:window-height="480" id="namedview4" showgrid="false" inkscape:zoom="1.2309383" inkscape:cx="136.48125" inkscape:cy="57.006248" inkscape:window-x="0" inkscape:window-y="25" inkscape:window-maximized="0" inkscape:current-layer="g10"/><g id="g10" inkscape:groupmode="layer" inkscape:label="ink_ext_XXXXXX" transform="matrix(1.25,0,0,-1.25,0,114.0125)"><g id="g12" transform="scale(0.1,0.1)"><path d="m 1308.73,601.652 c -47.88,0 -83.54,-23.511 -83.54,-80.093 0,-42.633 23.5,-72.227 80.96,-72.227 48.7,0 81.78,28.695 81.78,73.988 0,51.328 -29.6,78.332 -79.2,78.332 z M 1213,202.133 c -11.33,-13.906 -22.62,-28.68 -22.62,-46.117 0,-34.786 44.36,-45.254 105.3,-45.254 50.48,0 119.24,3.535 119.24,50.468 0,27.895 -33.08,29.622 -74.88,32.243 l -127.04,8.66 z m 257.61,396.89 c 15.64,-20.023 32.2,-47.878 32.2,-87.91 0,-96.601 -75.72,-153.164 -185.35,-153.164 -27.88,0 -53.12,3.473 -68.77,7.817 l -28.73,-46.118 85.28,-5.21 c 150.58,-9.594 239.32,-13.954 239.32,-129.661 0,-100.109 -87.88,-156.652 -239.32,-156.652 -157.52,0 -217.57,40.0391 -217.57,108.781 0,39.18 17.41,60.02 47.87,88.782 -28.73,12.144 -38.29,33.89 -38.29,57.398 0,19.16 9.56,36.562 25.25,53.109 15.66,16.52 33.06,33.078 53.95,52.219 -42.64,20.883 -74.85,66.141 -74.85,130.555 0,100.074 66.15,168.804 199.28,168.804 37.43,0 60.07,-3.445 80.09,-8.699 l 169.72,0 0,-73.957 -80.08,-6.094" style="fill:#f03c2e;fill-opacity:1;fill-rule:nonzero;stroke:none" id="path14" inkscape:connector-curvature="0"/><path d="m 1703.8,757.168 c -49.62,0 -78.33,28.746 -78.33,78.371 0,49.563 28.71,76.563 78.33,76.563 50.48,0 79.2,-27 79.2,-76.563 0,-49.625 -28.72,-78.371 -79.2,-78.371 z m -112.29,-523.012 0,68.719 44.4,6.074 c 12.19,1.766 13.92,4.356 13.92,17.442 l 0,255.867 c 0,9.555 -2.6,15.672 -11.33,18.262 l -46.99,16.55 9.57,70.469 180.17,0 0,-361.148 c 0,-13.95 0.84,-15.676 13.93,-17.442 l 44.39,-6.074 0,-68.719 -248.06,0" style="fill:#f03c2e;fill-opacity:1;fill-rule:nonzero;stroke:none" id="path16" inkscape:connector-curvature="0"/><path d="m 2183.73,267.895 c -37.44,-18.254 -92.26,-34.793 -141.89,-34.793 -103.56,0 -142.71,41.734 -142.71,140.121 l 0,228.004 c 0,5.211 0,8.707 -6.99,8.707 l -60.91,0 0,77.453 c 76.61,8.726 107.05,47.027 116.62,141.886 l 82.69,0 0,-123.625 c 0,-6.07 0,-8.699 6.97,-8.699 l 122.7,0 0,-87.015 -129.67,0 0,-207.989 c 0,-51.355 12.2,-71.355 59.17,-71.355 24.4,0 49.61,6.074 70.5,13.914 l 23.52,-76.609" style="fill:#f03c2e;fill-opacity:1;fill-rule:nonzero;stroke:none" id="path18" inkscape:connector-curvature="0"/><path d="m 894.215,496.285 -397.938,397.91 c -22.898,22.918 -60.066,22.918 -82.996,0 L 330.652,811.559 435.469,706.738 c 24.367,8.227 52.297,2.711 71.711,-16.707 19.515,-19.539 24.992,-47.707 16.558,-72.156 l 101.024,-101.02 c 24.441,8.422 52.64,2.981 72.156,-16.57 27.285,-27.277 27.285,-71.476 0,-98.762 -27.289,-27.293 -71.488,-27.293 -98.789,0 -20.516,20.532 -25.59,50.676 -15.199,75.954 l -94.215,94.218 -0.008,-247.929 c 6.652,-3.293 12.93,-7.688 18.473,-13.207 27.277,-27.274 27.277,-71.465 0,-98.782 -27.285,-27.273 -71.504,-27.273 -98.762,0 -27.281,27.317 -27.281,71.508 0,98.782 6.742,6.73 14.543,11.824 22.867,15.238 l 0,250.23 c -8.324,3.403 -16.113,8.461 -22.867,15.239 -20.664,20.648 -25.641,50.976 -15.043,76.351 L 290.051,770.961 17.1992,498.125 c -22.92576,-22.937 -22.92576,-60.105 0,-83.027 L 415.133,17.1875 c 22.91,-22.91797 60.066,-22.91797 83.008,0 L 894.215,413.254 c 22.918,22.93 22.918,60.109 0,83.031" style="fill:#f03c2e;fill-opacity:1;fill-rule:nonzero;stroke:none" id="path20" inkscape:connector-curvature="0"/></g></g></svg>