<svg xmlns="http://www.w3.org/2000/svg" xmlns:xlink="http://www.w3.org/1999/xlink" width="14" zoomAndPan="magnify" viewBox="0 0 375 375" height="14" preserveAspectRatio="xMidYMid meet" version="1.0">
<path fill="#ffffff" d="M 187.5 0 C 83.945312 0 0 83.945312 0 187.5 C 0 291.054688 83.945312 375 187.5 375 C 291.054688 375 375 291.054688 375 187.5 C 375 83.945312 291.054688 0 187.5 0 " fill-opacity="1" fill-rule="nonzero"/><path fill="#1b1f23" d="M 187.5 0 C 83.90625 0 0 83.90625 0 187.5 C 0 270.46875 53.671875 340.546875 128.203125 365.390625 C 137.578125 367.03125 141.09375 361.40625 141.09375 356.484375 C 141.09375 352.03125 140.859375 337.265625 140.859375 321.5625 C 93.75 330.234375 81.5625 310.078125 77.8125 299.53125 C 75.703125 294.140625 66.5625 277.5 58.59375 273.046875 C 52.03125 269.53125 42.65625 260.859375 58.359375 260.625 C 73.125 260.390625 83.671875 274.21875 87.1875 279.84375 C 104.0625 308.203125 131.015625 300.234375 141.796875 295.3125 C 143.4375 283.125 148.359375 274.921875 153.75 270.234375 C 112.03125 265.546875 68.4375 249.375 68.4375 177.65625 C 68.4375 157.265625 75.703125 140.390625 87.65625 127.265625 C 85.78125 122.578125 79.21875 103.359375 89.53125 77.578125 C 89.53125 77.578125 105.234375 72.65625 141.09375 96.796875 C 156.09375 92.578125 172.03125 90.46875 187.96875 90.46875 C 203.90625 90.46875 219.84375 92.578125 234.84375 96.796875 C 270.703125 72.421875 286.40625 77.578125 286.40625 77.578125 C 296.71875 103.359375 290.15625 122.578125 288.28125 127.265625 C 300.234375 140.390625 307.5 157.03125 307.5 177.65625 C 307.5 249.609375 263.671875 265.546875 221.953125 270.234375 C 228.75 276.09375 234.609375 287.34375 234.609375 304.921875 C 234.609375 330 234.375 350.15625 234.375 356.484375 C 234.375 361.40625 237.890625 367.265625 247.265625 365.390625 C 321.328125 340.546875 375 270.234375 375 187.5 C 375 83.90625 291.09375 0 187.5 0 Z M 187.5 0 " fill-opacity="1" fill-rule="evenodd"/></svg>