<svg xmlns="http://www.w3.org/2000/svg" xmlns:xlink="http://www.w3.org/1999/xlink" version="1.1" width="500" height="500" viewBox="0 0 500 500" xml:space="preserve">
<desc>Created with Fabric.js 3.5.0</desc>
<defs>
</defs>
<rect x="0" y="0" width="100%" height="100%" fill="rgba(255,255,255,0)"/>
<g transform="matrix(1.944 0 0 1.944 250.0065 250.0065)" id="444594">
<g style="" vector-effect="non-scaling-stroke">
		<g transform="matrix(1 0 0 1 -0.0037 -0.0101)" id="951007">
<path style="stroke: none; stroke-width: 1; stroke-dasharray: none; stroke-linecap: butt; stroke-dashoffset: 0; stroke-linejoin: miter; stroke-miterlimit: 4; is-custom-font: none; font-file-url: none; fill: rgb(226,67,41); fill-rule: nonzero; opacity: 1;" transform=" translate(-189.9963, -189.99)" d="M 282.83 170.73 l -0.27 -0.69 l -26.14 -68.22 a 6.81 6.81 0 0 0 -2.69 -3.24 a 7 7 0 0 0 -8 0.43 a 7 7 0 0 0 -2.32 3.52 l -17.65 54 H 154.29 l -17.65 -54 A 6.86 6.86 0 0 0 134.32 99 a 7 7 0 0 0 -8 -0.43 a 6.87 6.87 0 0 0 -2.69 3.24 L 97.44 170 l -0.26 0.69 a 48.54 48.54 0 0 0 16.1 56.1 l 0.09 0.07 l 0.24 0.17 l 39.82 29.82 l 19.7 14.91 l 12 9.06 a 8.07 8.07 0 0 0 9.76 0 l 12 -9.06 l 19.7 -14.91 l 40.06 -30 l 0.1 -0.08 A 48.56 48.56 0 0 0 282.83 170.73 Z" stroke-linecap="round"/>
</g>
		<g transform="matrix(1 0 0 1 48.0151 23.465)" id="126859">
<path style="stroke: none; stroke-width: 1; stroke-dasharray: none; stroke-linecap: butt; stroke-dashoffset: 0; stroke-linejoin: miter; stroke-miterlimit: 4; is-custom-font: none; font-file-url: none; fill: rgb(252,109,38); fill-rule: nonzero; opacity: 1;" transform=" translate(-238.0151, -213.465)" d="M 282.83 170.73 l -0.27 -0.69 a 88.3 88.3 0 0 0 -35.15 15.8 L 190 229.25 c 19.55 14.79 36.57 27.64 36.57 27.64 l 40.06 -30 l 0.1 -0.08 A 48.56 48.56 0 0 0 282.83 170.73 Z" stroke-linecap="round"/>
</g>
		<g transform="matrix(1 0 0 1 0.01 65.8763)" id="284857">
<path style="stroke: none; stroke-width: 1; stroke-dasharray: none; stroke-linecap: butt; stroke-dashoffset: 0; stroke-linejoin: miter; stroke-miterlimit: 4; is-custom-font: none; font-file-url: none; fill: rgb(252,163,38); fill-rule: nonzero; opacity: 1;" transform=" translate(-190.01, -255.8763)" d="M 153.43 256.89 l 19.7 14.91 l 12 9.06 a 8.07 8.07 0 0 0 9.76 0 l 12 -9.06 l 19.7 -14.91 S 209.55 244 190 229.25 C 170.45 244 153.43 256.89 153.43 256.89 Z" stroke-linecap="round"/>
</g>
		<g transform="matrix(1 0 0 1 -48.0151 23.425)" id="11193">
<path style="stroke: none; stroke-width: 1; stroke-dasharray: none; stroke-linecap: butt; stroke-dashoffset: 0; stroke-linejoin: miter; stroke-miterlimit: 4; is-custom-font: none; font-file-url: none; fill: rgb(252,109,38); fill-rule: nonzero; opacity: 1;" transform=" translate(-141.9849, -213.425)" d="M 132.58 185.84 A 88.19 88.19 0 0 0 97.44 170 l -0.26 0.69 a 48.54 48.54 0 0 0 16.1 56.1 l 0.09 0.07 l 0.24 0.17 l 39.82 29.82 s 17 -12.85 36.57 -27.64 Z" stroke-linecap="round"/>
</g>
</g>
</g>
</svg>