<svg id="svg" version="1.1" xmlns="http://www.w3.org/2000/svg" xmlns:xlink="http://www.w3.org/1999/xlink" width="400" height="400" viewBox="0, 0, 400,400"><g id="svgg"><path id="path0" d="M75.488 254.199 L 17.969 254.299 17.969 255.810 C 17.969 262.920,20.095 268.117,30.056 285.352 C 66.678 348.717,63.612 343.672,68.086 347.922 C 73.089 352.675,78.135 355.543,84.661 357.345 L 88.477 358.398 197.461 358.515 C 312.626 358.637,310.938 358.662,316.881 356.788 C 320.443 355.665,324.727 353.649,324.485 353.210 C 324.276 352.832,276.297 269.570,271.313 260.938 L 267.367 254.102 200.187 254.100 C 163.239 254.099,107.124 254.143,75.488 254.199 " stroke="none" fill="#1c7cf4" fill-rule="evenodd"></path><path id="path1" d="M228.711 87.744 C 213.027 114.928,200.158 137.375,200.113 137.628 C 200.068 137.880,215.102 164.189,233.522 196.094 L 267.012 254.102 324.395 254.102 L 381.778 254.102 381.680 251.399 C 381.553 247.892,380.033 241.950,378.362 238.433 C 376.072 233.611,271.185 51.520,268.921 48.438 C 266.497 45.136,258.651 38.200,257.455 38.301 C 257.329 38.311,244.395 60.561,228.711 87.744 " stroke="none" fill="#fbbb04" fill-rule="evenodd"></path><path id="path2" d="M140.017 39.873 C 137.184 41.834,133.698 45.168,131.472 48.047 C 129.520 50.572,23.614 233.880,21.452 238.477 C 19.671 242.265,18.414 247.021,18.092 251.195 L 17.853 254.299 75.409 254.201 L 132.965 254.102 166.117 196.680 C 184.350 165.098,199.452 138.884,199.675 138.427 C 200.042 137.678,144.777 40.811,142.815 38.762 C 142.433 38.364,141.880 38.584,140.017 39.873 " stroke="none" fill="#04ab43" fill-rule="evenodd"></path><path id="path3" d="M324.722 254.295 L 267.608 254.492 271.432 261.133 C 304.082 317.829,324.372 352.985,324.577 353.217 C 324.951 353.638,328.499 351.135,331.475 348.351 C 336.268 343.868,334.369 346.938,362.590 298.047 C 378.444 270.580,379.607 268.375,380.896 263.333 C 381.569 260.704,382.384 253.760,381.991 254.002 C 381.906 254.055,356.135 254.186,324.722 254.295 " stroke="none" fill="#eb4434" fill-rule="evenodd"></path><path id="path4" d="M153.906 33.963 C 150.090 34.785,143.912 37.045,142.673 38.073 C 142.618 38.119,144.205 40.953,146.199 44.371 C 148.194 47.789,161.070 70.054,174.812 93.848 C 188.554 117.642,199.898 137.109,200.022 137.109 C 200.145 137.109,213.120 114.829,228.855 87.598 L 257.464 38.086 254.415 36.646 C 252.739 35.854,249.873 34.799,248.047 34.302 L 244.727 33.398 200.977 33.323 C 159.881 33.253,157.025 33.292,153.906 33.963 " stroke="none" fill="#04842c" fill-rule="evenodd"></path></g></svg>