<?xml version="1.0" encoding="utf-8"?>
<svg viewBox="0 0 18 18" fill="none" width="14" height="14" xmlns="http://www.w3.org/2000/svg">
  <defs>
    <linearGradient id="paint0_linear" x1="20.2422" y1="11.6708" x2="16.8008" y2="15.2197" gradientUnits="userSpaceOnUse" gradientTransform="matrix(1, 0, 0, 1, -7.186607, -7.091295)">
      <stop offset="0.176" stop-color="#0052CC"/>
      <stop offset="1" stop-color="#2684FF"/>
    </linearGradient>
    <linearGradient id="paint1_linear" x1="16.4668" y1="15.7246" x2="12.4878" y2="19.5961" gradientUnits="userSpaceOnUse" gradientTransform="matrix(1, 0, 0, 1, -7.186607, -7.091295)">
      <stop offset="0.176" stop-color="#0052CC"/>
      <stop offset="1" stop-color="#2684FF"/>
    </linearGradient>
  </defs>
  <path d="M 16.533 0.549 L 8.453 0.549 C 8.453 2.549 10.093 4.189 12.093 4.189 L 13.573 4.189 L 13.573 5.629 C 13.573 7.629 15.213 9.269 17.213 9.269 L 17.213 1.229 C 17.213 0.869 16.933 0.549 16.533 0.549 Z" fill="#2684FF"/>
  <path d="M 12.533 4.549 L 4.453 4.549 C 4.453 6.549 6.093 8.189 8.093 8.189 L 9.573 8.189 L 9.573 9.629 C 9.573 11.629 11.213 13.269 13.213 13.269 L 13.213 5.269 C 13.213 4.869 12.893 4.549 12.533 4.549 Z" fill="url(#paint0_linear)"/>
  <path d="M 8.533 8.589 L 0.413 8.589 C 0.413 10.589 2.053 12.229 4.053 12.229 L 5.533 12.229 L 5.533 13.669 C 5.533 15.669 7.173 17.309 9.173 17.309 L 9.173 9.309 C 9.213 8.909 8.893 8.589 8.533 8.589 Z" fill="url(#paint1_linear)"/>
</svg>