<svg id="svg" version="1.1" xmlns="http://www.w3.org/2000/svg" xmlns:xlink="http://www.w3.org/1999/xlink" width="400" height="371.875" viewBox="0, 0, 400,371.875"><g id="svgg"><path id="path0" d="M343.457 36.065 C 343.084 36.762,342.704 36.837,339.543 36.837 C 336.495 36.837,335.977 36.931,335.534 37.562 C 335.193 38.050,334.517 38.317,333.467 38.379 C 332.347 38.445,331.905 38.634,331.901 39.049 C 331.896 39.551,331.849 39.555,331.549 39.080 C 331.252 38.611,331.168 38.624,330.957 39.173 C 330.819 39.532,330.320 39.814,329.821 39.814 C 329.331 39.814,328.930 39.976,328.930 40.174 C 328.930 40.373,328.650 40.427,328.307 40.296 C 327.830 40.113,327.742 40.207,327.931 40.699 C 328.078 41.081,328.029 41.249,327.810 41.114 C 327.607 40.989,327.442 41.064,327.442 41.280 C 327.442 41.497,327.107 41.674,326.698 41.674 C 326.202 41.674,325.953 41.922,325.953 42.419 C 325.953 43.094,324.815 43.433,323.278 43.214 C 323.137 43.194,322.917 43.509,322.788 43.915 C 322.660 44.320,322.231 44.651,321.835 44.651 C 321.440 44.651,321.136 44.777,321.160 44.930 C 321.290 45.753,321.038 46.140,320.372 46.140 C 319.876 46.140,319.628 46.388,319.628 46.884 C 319.628 47.550,319.241 47.802,318.419 47.672 C 318.265 47.648,318.140 48.047,318.140 48.558 C 318.140 49.240,317.941 49.488,317.395 49.488 C 316.899 49.488,316.651 49.736,316.651 50.233 C 316.651 50.732,316.403 50.977,315.898 50.977 C 315.432 50.977,315.006 51.340,314.782 51.929 C 314.583 52.453,314.277 52.793,314.102 52.685 C 313.675 52.422,313.011 53.951,313.147 54.884 C 313.249 55.584,313.226 55.589,312.765 54.966 C 312.193 54.194,311.814 54.766,311.814 56.403 C 311.814 57.054,311.609 57.302,311.070 57.302 C 310.660 57.302,310.345 57.428,310.370 57.581 C 310.591 58.980,310.242 60.255,309.581 60.465 C 309.030 60.640,308.837 61.028,308.837 61.962 C 308.837 62.810,308.533 63.526,307.907 64.152 C 307.128 64.931,306.977 65.434,306.977 67.249 C 306.977 68.930,306.816 69.554,306.258 70.031 C 305.112 71.013,305.077 87.776,306.221 88.075 C 306.911 88.256,307.339 90.641,307.001 92.431 C 306.900 92.968,307.840 93.387,308.296 93.009 C 308.591 92.765,308.735 93.275,308.796 94.777 C 308.885 96.984,309.228 98.015,309.801 97.801 C 309.987 97.731,310.191 98.390,310.254 99.264 C 310.318 100.139,310.493 100.778,310.644 100.684 C 311.222 100.327,311.862 101.145,311.894 102.282 C 311.913 102.935,312.096 103.572,312.301 103.699 C 312.533 103.842,312.554 103.732,312.358 103.406 C 312.094 102.967,312.140 102.962,312.650 103.376 C 312.984 103.647,313.314 104.233,313.382 104.678 C 313.450 105.124,313.714 105.445,313.969 105.393 C 314.224 105.341,314.624 105.717,314.857 106.230 C 315.091 106.743,315.590 107.163,315.967 107.163 C 316.403 107.163,316.651 107.433,316.651 107.907 C 316.651 108.839,319.474 111.628,320.417 111.628 C 320.848 111.628,321.116 111.891,321.116 112.312 C 321.116 112.689,321.544 113.192,322.067 113.430 C 322.591 113.669,322.923 114.018,322.806 114.207 C 322.689 114.396,322.973 114.669,323.436 114.814 C 323.900 114.959,324.395 115.258,324.536 115.478 C 324.678 115.699,325.431 116.059,326.211 116.277 C 327.028 116.507,327.628 116.906,327.628 117.221 C 327.628 117.573,328.087 117.811,328.916 117.890 C 329.657 117.960,330.416 118.316,330.704 118.727 C 331.092 119.280,331.654 119.442,333.190 119.442 C 334.965 119.442,335.198 119.535,335.395 120.320 C 335.603 121.145,335.797 121.201,338.692 121.269 C 341.005 121.322,341.906 121.492,342.326 121.952 C 342.838 122.513,342.822 122.520,342.140 122.026 C 341.449 121.527,341.433 121.536,341.915 122.151 C 342.380 122.743,343.115 122.808,348.889 122.772 C 354.702 122.736,355.287 122.675,354.770 122.159 C 353.895 121.284,354.325 121.166,358.065 121.255 C 361.410 121.335,363.788 120.563,362.908 119.683 C 362.775 119.550,363.532 119.442,364.589 119.442 C 366.264 119.442,366.512 119.346,366.512 118.698 C 366.512 118.082,366.760 117.953,367.948 117.953 C 369.262 117.953,369.371 117.877,369.215 117.065 C 369.054 116.223,369.138 116.180,370.848 116.228 C 372.374 116.271,372.634 116.179,372.542 115.628 C 372.466 115.179,372.676 114.977,373.217 114.977 C 374.328 114.977,375.442 114.307,375.442 113.639 C 375.442 113.328,375.598 113.169,375.788 113.286 C 375.979 113.404,376.241 113.328,376.372 113.116 C 376.503 112.905,376.770 112.831,376.965 112.952 C 377.161 113.073,377.297 113.034,377.267 112.865 C 377.133 112.090,377.359 111.700,378.047 111.520 C 378.456 111.413,378.791 111.070,378.791 110.758 C 378.791 110.446,379.167 110.138,379.628 110.072 C 380.187 109.993,380.429 109.737,380.356 109.302 C 380.281 108.859,380.489 108.651,381.007 108.651 C 381.425 108.651,381.788 108.484,381.814 108.279 C 381.840 108.074,381.881 107.698,381.907 107.442 C 381.933 107.186,382.149 106.977,382.388 106.977 C 383.067 106.977,383.412 106.468,383.474 105.377 C 383.584 103.438,383.610 103.386,384.344 103.619 C 384.892 103.793,385.089 103.646,385.181 102.993 C 385.263 102.419,385.516 102.175,385.953 102.249 C 386.484 102.338,386.605 102.080,386.605 100.854 C 386.605 99.583,386.724 99.349,387.371 99.349 C 387.792 99.349,388.033 99.181,387.907 98.977 C 387.780 98.772,387.854 98.605,388.071 98.605 C 388.288 98.605,388.465 98.024,388.465 97.315 C 388.465 96.407,388.685 95.909,389.209 95.628 C 389.816 95.303,389.953 94.849,389.953 93.174 C 389.953 92.044,390.102 91.211,390.283 91.323 C 391.227 91.906,391.391 90.120,391.420 78.945 C 391.439 72.135,391.312 67.385,391.117 67.506 C 390.506 67.884,390.034 66.817,389.843 64.626 C 389.717 63.170,389.445 62.308,389.014 61.992 C 388.661 61.734,388.372 61.076,388.372 60.529 C 388.372 59.982,388.216 59.535,388.025 59.535 C 387.833 59.535,387.780 59.367,387.907 59.163 C 388.033 58.958,387.792 58.791,387.371 58.791 C 386.620 58.791,386.398 58.170,386.541 56.465 C 386.577 56.045,386.333 55.814,385.856 55.814 C 385.353 55.814,385.116 55.564,385.116 55.035 C 385.116 54.569,384.817 54.178,384.372 54.061 C 383.884 53.934,383.628 53.554,383.628 52.958 C 383.628 52.454,383.464 52.150,383.260 52.276 C 383.057 52.402,382.982 52.269,383.093 51.981 C 383.209 51.679,382.888 51.193,382.332 50.829 C 381.804 50.483,381.471 50.040,381.591 49.844 C 381.712 49.648,381.457 49.488,381.023 49.488 C 380.590 49.488,380.330 49.334,380.447 49.146 C 380.708 48.724,379.590 47.550,379.172 47.808 C 378.883 47.987,378.251 46.958,378.345 46.462 C 378.369 46.333,378.103 46.249,377.753 46.276 C 377.403 46.303,377.162 46.104,377.219 45.833 C 377.275 45.562,377.148 45.447,376.937 45.577 C 376.726 45.708,376.452 45.553,376.330 45.233 C 376.207 44.913,375.706 44.651,375.216 44.651 C 374.664 44.651,374.326 44.434,374.326 44.081 C 374.326 43.768,374.033 43.401,373.674 43.265 C 372.758 42.918,372.080 42.184,372.390 41.874 C 372.534 41.730,372.484 41.646,372.279 41.687 C 370.811 41.984,369.532 41.621,369.421 40.878 C 369.332 40.282,368.991 40.048,368.067 39.948 C 366.777 39.809,365.613 38.979,366.064 38.521 C 366.208 38.374,366.074 38.291,365.767 38.334 C 363.670 38.633,361.713 38.289,361.488 37.581 C 361.277 36.916,360.925 36.837,358.172 36.837 C 355.675 36.837,354.977 36.710,354.484 36.165 C 353.483 35.060,344.041 34.974,343.457 36.065 M16.243 82.512 C 16.148 82.665,17.854 82.791,20.035 82.791 C 23.009 82.791,23.977 82.907,23.907 83.256 C 23.835 83.617,26.112 83.739,34.140 83.803 L 44.465 83.884 33.860 84.096 C 28.028 84.213,23.172 84.381,23.070 84.469 C 22.967 84.558,26.819 84.719,31.628 84.827 C 39.851 85.012,42.186 85.366,39.202 85.976 C 38.507 86.118,37.455 86.843,36.612 87.759 C 35.607 88.852,34.894 89.302,34.168 89.302 C 33.523 89.302,32.995 89.579,32.744 90.047 C 32.485 90.531,31.965 90.791,31.256 90.791 C 30.547 90.791,30.027 91.051,29.767 91.535 C 29.520 91.998,28.987 92.280,28.359 92.281 C 27.648 92.282,26.876 92.778,25.751 93.955 C 24.763 94.990,23.826 95.628,23.297 95.628 C 22.826 95.628,22.138 95.963,21.767 96.372 C 21.397 96.781,20.658 97.116,20.125 97.116 C 19.559 97.116,18.962 97.426,18.691 97.860 C 18.428 98.281,17.823 98.605,17.299 98.605 C 16.705 98.605,15.851 99.141,14.927 100.093 C 13.973 101.076,13.155 101.581,12.517 101.581 C 11.898 101.581,11.333 101.915,10.943 102.512 C 10.539 103.127,9.990 103.442,9.319 103.442 C 8.614 103.442,7.886 103.895,6.928 104.930 C 6.095 105.831,5.216 106.419,4.701 106.419 C 4.233 106.419,3.464 106.830,2.992 107.332 C 2.520 107.835,1.947 108.212,1.718 108.170 C 1.430 108.116,1.271 109.888,1.200 113.953 C 1.115 118.824,1.005 119.814,0.549 119.814 C -0.100 119.814,-0.304 278.898,0.344 279.132 C 0.533 279.200,0.753 279.842,0.834 280.558 C 0.945 281.544,1.155 281.861,1.696 281.861 C 2.170 281.861,2.476 282.189,2.601 282.831 C 2.730 283.490,2.999 283.768,3.442 283.700 C 3.905 283.629,4.093 283.852,4.093 284.472 C 4.093 285.093,4.334 285.378,4.930 285.462 C 5.501 285.544,5.731 285.795,5.653 286.254 C 5.588 286.639,5.747 286.898,6.025 286.861 C 7.053 286.723,7.442 286.907,7.448 287.535 C 7.452 288.091,7.506 288.105,7.814 287.628 C 8.122 287.151,8.175 287.164,8.180 287.721 C 8.183 288.079,8.312 288.352,8.465 288.328 C 10.406 288.022,12.350 288.432,12.173 289.111 C 11.981 289.846,12.283 289.850,62.752 289.858 L 113.525 289.866 113.915 288.747 C 114.130 288.131,114.331 287.590,114.362 287.543 C 114.393 287.497,131.761 287.371,152.957 287.264 C 188.672 287.084,191.542 287.023,192.132 286.433 C 192.482 286.083,193.338 285.690,194.034 285.559 C 194.730 285.429,195.588 285.003,195.940 284.614 C 196.292 284.225,196.870 283.907,197.224 283.907 C 197.577 283.907,197.954 283.572,198.061 283.163 C 198.168 282.753,198.523 282.419,198.849 282.419 C 199.175 282.419,199.442 282.173,199.442 281.874 C 199.442 281.574,199.777 281.149,200.186 280.930 C 200.595 280.711,200.930 280.203,200.930 279.801 C 200.930 279.399,201.253 278.747,201.648 278.352 C 202.044 277.956,202.478 276.832,202.618 275.841 C 202.757 274.854,203.184 273.377,203.568 272.558 C 204.236 271.132,204.282 268.335,204.671 205.209 C 205.219 116.251,205.114 98.030,204.043 96.707 C 203.811 96.421,203.502 95.600,203.357 94.884 C 202.803 92.155,197.599 86.273,195.338 85.821 C 194.730 85.699,194.233 85.432,194.233 85.226 C 194.233 84.053,201.278 84.301,203.291 85.546 C 203.985 85.975,204.761 86.326,205.015 86.326 C 205.797 86.326,210.977 91.249,210.977 91.993 C 210.977 92.220,211.202 92.671,211.477 92.994 C 212.015 93.625,213.460 98.074,213.722 99.907 C 213.810 100.521,213.835 100.102,213.779 98.977 C 213.678 96.969,212.522 93.125,211.739 92.193 C 211.521 91.933,210.667 90.851,209.841 89.788 C 209.016 88.724,208.013 87.750,207.612 87.623 C 207.212 87.496,206.884 87.244,206.884 87.064 C 206.884 86.446,202.975 84.730,200.372 84.206 C 198.444 83.817,193.082 83.629,179.721 83.480 C 165.118 83.317,161.517 83.179,160.850 82.756 C 159.943 82.179,16.599 81.938,16.243 82.512 M6.884 85.103 C 5.700 85.387,5.437 85.860,6.462 85.860 C 6.977 85.860,7.486 85.630,7.594 85.349 C 7.702 85.067,7.754 84.857,7.709 84.880 C 7.665 84.904,7.293 85.004,6.884 85.103 M5.023 86.642 C 4.614 86.775,4.236 87.098,4.182 87.360 C 4.099 87.768,5.012 87.370,6.295 86.438 C 6.535 86.264,5.848 86.374,5.023 86.642 M0.998 90.326 C 0.909 90.479,0.858 91.211,0.883 91.953 C 0.920 92.999,0.805 93.259,0.372 93.112 C 0.063 93.008,0.146 93.183,0.558 93.505 C 1.249 94.046,1.317 94.030,1.512 93.276 C 1.628 92.830,1.586 92.409,1.419 92.341 C 1.253 92.273,1.116 92.054,1.116 91.854 C 1.116 91.654,1.312 91.612,1.552 91.760 C 1.844 91.941,1.909 91.827,1.751 91.414 C 1.615 91.059,1.686 90.837,1.920 90.888 C 2.143 90.937,2.402 90.767,2.496 90.512 C 2.679 90.014,1.280 89.840,0.998 90.326 M307.349 93.790 C 307.349 93.938,307.600 94.156,307.907 94.274 C 308.227 94.397,308.465 94.282,308.465 94.004 C 308.465 93.737,308.214 93.519,307.907 93.519 C 307.600 93.519,307.349 93.641,307.349 93.790 M213.581 120.265 C 213.581 120.581,213.205 121.102,212.744 121.423 C 212.041 121.914,212.011 122.011,212.558 122.027 C 212.916 122.038,213.209 122.214,213.209 122.419 C 213.209 122.623,213.450 122.791,213.744 122.791 C 214.152 122.791,214.228 122.460,214.063 121.395 C 213.834 119.908,213.581 119.316,213.581 120.265 M147.184 129.401 C 148.708 130.459,148.837 131.270,148.832 139.711 C 148.828 144.219,148.691 148.119,148.526 148.379 C 147.871 149.412,145.303 149.581,130.328 149.581 C 121.885 149.581,114.937 149.623,114.889 149.674 C 114.840 149.726,114.715 170.316,114.610 195.432 C 114.421 240.571,114.410 241.104,113.669 241.845 C 112.587 242.927,91.787 243.208,91.010 242.151 C 90.380 241.294,90.048 219.984,90.047 180.372 L 90.047 149.953 74.140 149.926 C 59.665 149.902,58.132 149.840,57.116 149.245 L 56.000 148.591 55.900 139.604 C 55.805 131.017,55.834 130.584,56.552 129.867 C 57.326 129.093,146.083 128.636,147.184 129.401 M213.581 139.907 C 213.581 140.726,213.648 141.395,213.728 141.395 C 213.809 141.395,213.939 140.726,214.017 139.907 C 214.095 139.088,214.029 138.419,213.870 138.419 C 213.711 138.419,213.581 139.088,213.581 139.907 M304.213 138.703 C 304.433 138.854,304.721 139.270,304.853 139.628 C 304.992 140.005,305.476 140.279,306.003 140.279 C 306.504 140.279,307.360 140.656,307.906 141.116 C 308.452 141.577,309.291 142.288,309.771 142.698 C 310.251 143.107,311.158 143.859,311.787 144.368 C 312.416 144.877,312.930 145.499,312.930 145.750 C 312.930 146.001,313.252 146.378,313.644 146.588 C 314.037 146.799,314.469 147.473,314.603 148.088 C 314.738 148.702,315.097 149.344,315.401 149.514 C 315.706 149.685,316.097 150.727,316.273 151.842 C 316.449 152.952,316.770 154.530,316.985 155.349 C 317.499 157.296,317.498 270.537,316.985 273.488 C 316.789 274.614,316.462 277.874,316.257 280.733 C 316.029 283.922,315.688 286.232,315.375 286.709 C 315.095 287.138,314.741 288.650,314.590 290.070 C 314.439 291.490,314.004 293.235,313.623 293.948 C 313.242 294.661,312.930 295.838,312.930 296.563 C 312.930 297.288,312.653 298.277,312.314 298.760 C 311.975 299.244,311.556 300.399,311.383 301.326 C 311.210 302.254,310.840 303.277,310.561 303.600 C 310.282 303.922,309.955 304.835,309.834 305.628 C 309.712 306.420,309.370 307.341,309.072 307.674 C 307.432 309.508,308.434 313.302,310.558 313.302 C 311.723 313.302,312.186 313.454,312.186 313.835 C 312.186 314.640,313.507 315.050,316.329 315.120 C 317.680 315.154,318.092 315.314,318.235 315.860 C 318.397 316.480,318.847 316.565,322.257 316.624 C 325.570 316.681,326.165 316.788,326.595 317.401 C 327.375 318.515,342.698 318.493,342.698 317.378 C 342.698 316.701,342.979 316.651,346.769 316.651 C 349.125 316.651,350.938 316.492,351.074 316.273 C 351.202 316.065,351.463 315.991,351.654 316.109 C 351.844 316.227,352.000 316.062,352.000 315.743 C 352.000 315.315,352.414 315.152,353.581 315.123 C 356.418 315.052,356.647 314.987,357.018 314.140 C 357.321 313.451,357.683 313.301,359.065 313.297 C 360.923 313.290,361.906 312.861,361.514 312.228 C 361.341 311.947,361.811 311.814,362.977 311.814 C 364.028 311.814,364.606 311.669,364.465 311.442 C 364.339 311.237,364.422 311.070,364.651 311.070 C 364.880 311.070,364.964 310.902,364.837 310.698 C 364.710 310.491,364.989 310.323,365.466 310.321 C 367.004 310.311,368.052 309.882,367.847 309.346 C 367.724 309.028,367.911 308.837,368.343 308.837 C 368.771 308.837,369.125 308.482,369.269 307.907 C 369.432 307.257,369.752 306.980,370.333 306.989 C 371.098 306.999,371.113 307.038,370.517 307.490 C 370.162 307.760,369.967 308.076,370.083 308.192 C 370.200 308.308,370.616 308.082,371.008 307.690 C 371.400 307.298,371.972 306.977,372.279 306.977 C 372.589 306.977,372.837 306.646,372.837 306.233 C 372.837 305.823,373.088 305.467,373.395 305.442 C 373.702 305.416,374.121 305.353,374.326 305.302 C 374.530 305.251,374.865 305.188,375.070 305.163 C 375.274 305.137,375.442 304.865,375.442 304.558 C 375.442 304.046,375.898 303.828,376.683 303.967 C 376.854 303.997,377.083 303.682,377.192 303.266 C 377.302 302.845,377.699 302.512,378.090 302.512 C 378.543 302.512,378.791 302.248,378.791 301.767 C 378.791 301.260,379.039 301.023,379.570 301.023 C 380.023 301.023,380.426 300.727,380.534 300.313 C 380.636 299.923,381.039 299.520,381.430 299.418 C 381.826 299.314,382.140 298.908,382.140 298.497 C 382.140 298.074,382.456 297.678,382.884 297.567 C 383.293 297.460,383.628 297.105,383.628 296.779 C 383.628 296.434,383.939 296.186,384.372 296.186 C 384.868 296.186,385.116 295.938,385.116 295.442 C 385.116 294.946,385.364 294.698,385.860 294.698 C 386.341 294.698,386.605 294.450,386.605 293.997 C 386.605 293.609,386.937 293.209,387.349 293.101 C 388.058 292.916,388.280 292.161,388.112 290.512 C 388.049 289.892,388.448 289.697,389.494 289.834 C 389.753 289.868,389.943 289.762,389.915 289.599 C 389.785 288.822,390.015 288.403,390.690 288.188 C 391.095 288.060,391.410 287.839,391.390 287.698 C 391.211 286.437,391.534 285.458,392.186 285.288 C 392.614 285.176,392.930 284.780,392.930 284.357 C 392.930 283.910,393.259 283.532,393.767 283.392 C 394.466 283.201,394.512 283.102,394.047 282.796 C 393.673 282.551,393.642 282.428,393.953 282.424 C 394.209 282.421,394.419 282.040,394.419 281.578 C 394.419 281.115,394.760 280.524,395.177 280.263 C 395.594 280.003,395.836 279.628,395.713 279.430 C 395.591 279.232,395.668 279.070,395.885 279.070 C 396.102 279.070,396.279 278.440,396.279 277.671 C 396.279 276.675,396.493 276.138,397.023 275.807 C 397.537 275.487,397.767 274.940,397.767 274.043 C 397.767 273.240,398.052 272.460,398.512 272.000 C 399.101 271.410,399.256 270.760,399.256 268.868 C 399.256 267.307,399.417 266.415,399.721 266.292 C 400.071 266.150,400.048 266.005,399.628 265.708 C 399.250 265.441,399.220 265.312,399.535 265.308 C 399.905 265.303,400.000 253.479,400.000 207.442 C 400.000 169.116,399.874 149.581,399.628 149.581 C 399.423 149.581,399.256 149.104,399.256 148.519 C 399.256 147.901,398.865 147.036,398.320 146.447 C 397.805 145.892,397.480 145.281,397.597 145.091 C 397.715 144.900,397.467 144.744,397.045 144.744 C 396.360 144.744,396.104 144.363,396.235 143.535 C 396.259 143.381,395.860 143.256,395.349 143.256 C 394.667 143.256,394.419 143.057,394.419 142.512 C 394.419 142.016,394.171 141.767,393.674 141.767 C 393.000 141.767,392.750 141.370,392.895 140.530 C 392.925 140.362,392.789 140.323,392.593 140.444 C 392.397 140.564,392.132 140.493,392.004 140.285 C 391.875 140.077,391.184 139.907,390.468 139.907 C 389.607 139.907,389.252 139.767,389.421 139.493 C 389.562 139.266,389.446 138.933,389.164 138.755 C 388.546 138.363,303.641 138.312,304.213 138.703 M213.650 282.547 C 213.568 284.693,212.586 288.321,211.864 289.146 C 211.580 289.469,211.349 289.895,211.349 290.092 C 211.349 290.290,210.533 291.282,209.536 292.296 C 205.136 296.770,203.825 297.264,193.674 298.267 C 192.447 298.388,174.941 298.560,154.772 298.649 L 118.103 298.811 117.219 297.871 C 116.249 296.839,114.977 296.615,114.977 297.477 C 114.977 297.812,115.195 297.940,115.540 297.807 C 116.660 297.377,119.037 300.595,119.055 302.565 C 119.065 303.751,119.246 304.360,119.631 304.508 C 119.940 304.626,120.387 305.151,120.625 305.673 L 121.058 306.622 165.366 306.520 C 203.885 306.432,209.816 306.346,210.757 305.860 C 212.471 304.977,213.180 301.796,213.196 294.914 C 213.203 291.861,213.387 288.343,213.604 287.097 C 213.821 285.851,213.936 283.911,213.859 282.787 L 213.719 280.744 213.650 282.547 M113.736 291.969 C 113.265 292.441,113.491 292.837,114.233 292.837 C 114.791 292.837,114.977 293.085,114.977 293.829 C 114.977 294.375,115.081 294.718,115.207 294.591 C 115.334 294.464,115.327 293.766,115.191 293.041 C 114.962 291.824,114.340 291.365,113.736 291.969 " stroke="none" fill="#4b55c1" fill-rule="evenodd"></path><path id="path1" d="M204.589 0.352 C 204.521 0.546,203.906 0.802,203.222 0.922 C 201.570 1.210,201.518 1.216,201.302 1.132 C 200.597 0.857,199.846 0.867,200.020 1.149 C 200.136 1.336,200.053 1.488,199.836 1.488 C 199.619 1.488,199.442 1.740,199.442 2.047 C 199.442 2.574,197.957 2.823,196.000 2.624 C 195.642 2.588,195.349 2.746,195.349 2.975 C 195.349 3.205,195.183 3.290,194.981 3.165 C 194.770 3.035,194.708 3.184,194.835 3.516 C 195.013 3.981,194.753 4.093,193.493 4.093 C 192.243 4.093,191.891 4.242,191.736 4.837 C 191.600 5.358,191.228 5.581,190.499 5.581 C 189.174 5.581,188.227 5.940,188.478 6.346 C 188.728 6.751,187.469 7.425,186.279 7.523 C 185.771 7.565,185.429 7.718,185.519 7.863 C 185.608 8.008,185.394 8.413,185.043 8.764 C 184.606 9.201,184.359 9.263,184.258 8.960 C 184.161 8.669,183.925 8.747,183.563 9.190 C 183.219 9.610,183.101 9.652,183.245 9.302 C 183.372 8.995,183.197 9.121,182.856 9.581 C 182.514 10.042,181.909 10.419,181.511 10.419 C 180.956 10.419,180.842 10.593,181.023 11.163 C 181.226 11.800,181.090 11.907,180.078 11.907 C 179.238 11.907,178.953 12.052,179.090 12.410 C 179.340 13.061,177.988 14.286,177.721 13.651 C 177.619 13.408,177.567 13.628,177.605 14.140 C 177.660 14.883,177.509 15.061,176.854 15.027 C 176.402 15.003,176.046 15.087,176.061 15.213 C 176.184 16.240,175.924 16.687,175.277 16.562 C 174.742 16.459,174.614 16.577,174.782 17.017 C 174.947 17.446,174.872 17.525,174.512 17.302 C 174.147 17.077,174.077 17.161,174.251 17.613 C 174.432 18.087,174.274 18.233,173.581 18.233 C 172.950 18.233,172.736 18.393,172.878 18.762 C 173.103 19.350,171.807 20.225,171.338 19.801 C 171.177 19.655,171.136 19.793,171.248 20.109 C 171.360 20.424,171.220 21.000,170.935 21.389 C 170.559 21.904,170.414 21.950,170.402 21.559 C 170.393 21.265,170.171 21.526,169.909 22.140 C 169.647 22.753,169.320 23.214,169.182 23.163 C 168.417 22.880,168.116 23.158,168.277 24.000 C 168.383 24.552,168.283 24.930,168.031 24.930 C 167.280 24.930,166.187 26.475,166.709 26.798 C 167.030 26.996,166.930 27.157,166.375 27.333 C 165.926 27.476,165.581 27.897,165.581 28.304 C 165.581 28.700,165.430 29.023,165.244 29.023 C 165.059 29.023,164.991 29.344,165.094 29.737 C 165.232 30.265,165.061 30.483,164.437 30.574 C 163.973 30.642,163.525 30.949,163.443 31.256 C 163.309 31.752,163.336 31.752,163.687 31.256 C 163.904 30.949,164.084 30.873,164.087 31.088 C 164.090 31.303,163.940 31.638,163.752 31.833 C 163.565 32.027,163.356 32.605,163.287 33.116 C 163.208 33.707,162.953 34.013,162.588 33.955 C 162.044 33.868,161.866 34.560,161.732 37.276 C 161.715 37.619,161.611 37.892,161.502 37.883 C 160.878 37.828,160.378 37.989,160.416 38.233 C 160.702 40.045,160.309 41.674,159.585 41.674 C 158.980 41.674,158.842 41.848,158.992 42.419 C 159.099 42.828,159.063 43.163,158.912 43.163 C 158.762 43.163,158.640 43.456,158.641 43.814 C 158.656 47.083,158.486 48.001,157.860 48.029 C 157.446 48.048,157.384 48.129,157.690 48.252 C 158.083 48.409,158.083 48.550,157.690 49.024 C 157.150 49.674,157.012 54.326,157.532 54.326 C 157.712 54.326,157.700 54.535,157.506 54.791 C 157.303 55.058,157.186 58.729,157.230 63.442 C 157.323 73.373,157.303 73.031,157.792 72.729 C 158.026 72.585,158.141 72.741,158.071 73.106 C 157.962 73.683,159.797 73.735,182.884 73.810 C 209.172 73.894,212.131 74.071,213.892 75.666 C 214.265 76.003,214.743 76.279,214.954 76.279 C 215.621 76.279,218.463 78.728,219.758 80.419 C 220.444 81.314,221.240 82.298,221.528 82.605 C 221.816 82.912,222.168 83.709,222.312 84.376 C 222.455 85.043,222.852 86.131,223.193 86.794 C 223.747 87.869,223.814 89.880,223.814 105.360 C 223.814 114.908,223.937 122.526,224.087 122.290 C 224.287 121.976,224.362 121.986,224.366 122.326 C 224.373 122.882,225.717 122.951,226.050 122.413 C 226.179 122.205,226.451 122.138,226.655 122.264 C 226.862 122.391,226.974 122.198,226.909 121.830 C 226.804 121.239,227.141 121.159,229.953 121.104 C 234.666 121.013,234.714 121.005,234.656 120.279 C 234.613 119.738,234.976 119.609,236.791 119.515 C 238.802 119.411,240.289 118.739,239.734 118.184 C 239.505 117.955,240.005 117.882,241.953 117.863 C 242.516 117.858,242.979 117.666,242.982 117.438 C 242.986 117.186,243.108 117.213,243.294 117.506 C 243.539 117.892,243.697 117.873,244.078 117.413 C 244.470 116.941,244.464 116.836,244.046 116.832 C 243.616 116.827,243.616 116.774,244.049 116.500 C 244.332 116.321,245.033 116.207,245.607 116.246 C 246.356 116.298,246.778 116.080,247.102 115.474 C 247.351 115.010,247.700 114.720,247.879 114.831 C 248.364 115.131,250.456 114.594,250.230 114.228 C 250.122 114.054,250.207 113.805,250.419 113.674 C 250.630 113.544,250.696 113.264,250.566 113.053 C 250.421 112.820,250.637 112.835,251.118 113.092 C 251.552 113.325,251.928 113.425,251.953 113.315 C 251.979 113.206,252.042 112.949,252.093 112.744 C 252.144 112.540,252.207 112.205,252.233 112.000 C 252.258 111.795,252.776 111.628,253.382 111.628 C 254.082 111.628,254.623 111.372,254.861 110.927 C 255.067 110.541,255.653 110.120,256.163 109.992 C 256.786 109.836,257.020 109.578,256.877 109.206 C 256.750 108.873,256.879 108.651,257.200 108.651 C 257.494 108.651,257.948 108.253,258.208 107.766 C 258.530 107.166,258.909 106.940,259.388 107.065 C 260.079 107.246,260.254 106.914,260.122 105.674 C 260.084 105.321,260.170 105.262,260.357 105.511 C 260.563 105.788,260.901 105.778,261.486 105.478 C 261.945 105.243,262.202 104.930,262.056 104.784 C 261.910 104.638,262.057 104.621,262.384 104.747 C 262.807 104.909,263.048 104.697,263.221 104.007 C 263.379 103.377,263.622 103.135,263.918 103.312 C 264.177 103.468,264.141 103.301,263.834 102.922 C 263.351 102.327,263.369 102.272,264.020 102.386 C 264.566 102.481,264.737 102.306,264.715 101.674 C 264.692 101.037,264.892 100.837,265.552 100.837 C 266.089 100.837,266.419 100.616,266.419 100.257 C 266.419 99.913,266.244 99.785,265.989 99.943 C 265.723 100.107,265.660 100.045,265.825 99.778 C 265.971 99.542,266.415 99.349,266.813 99.349 C 267.456 99.349,267.743 98.739,267.570 97.740 C 267.540 97.571,267.688 97.539,267.898 97.669 C 268.107 97.798,268.279 97.623,268.279 97.279 C 268.279 96.748,268.369 96.728,268.874 97.147 C 269.393 97.578,269.459 97.524,269.391 96.727 C 269.266 95.266,269.357 94.978,270.026 94.721 C 270.569 94.513,270.559 94.587,269.953 95.256 C 269.348 95.925,269.338 95.999,269.881 95.790 C 270.228 95.657,270.533 95.399,270.558 95.216 C 270.752 93.831,271.306 92.638,271.655 92.854 C 271.845 92.971,272.000 92.796,272.000 92.465 C 272.000 92.134,272.152 91.957,272.337 92.072 C 272.523 92.186,272.594 91.972,272.496 91.597 C 272.392 91.199,272.718 90.437,273.275 89.775 C 273.802 89.149,274.233 88.220,274.233 87.711 C 274.233 87.088,274.484 86.719,275.000 86.584 C 275.422 86.474,275.737 86.161,275.700 85.889 C 275.556 84.833,275.733 82.865,275.951 83.083 C 276.470 83.602,277.251 82.262,276.858 81.527 C 276.633 81.108,276.614 80.753,276.812 80.681 C 276.999 80.614,277.217 79.983,277.296 79.280 C 277.374 78.576,277.680 77.936,277.975 77.856 C 278.418 77.736,278.414 77.786,277.953 78.140 C 277.457 78.521,277.457 78.551,277.953 78.416 C 278.553 78.253,278.658 77.769,278.894 74.065 C 279.067 71.355,279.285 70.557,279.772 70.858 C 280.386 71.237,280.449 70.210,280.410 60.465 C 280.375 51.516,280.324 50.795,279.725 50.842 C 279.369 50.870,279.162 50.756,279.266 50.588 C 279.369 50.421,279.318 50.200,279.152 50.097 C 278.986 49.995,278.870 48.978,278.894 47.839 C 278.921 46.587,278.781 45.765,278.539 45.762 C 278.268 45.758,278.263 45.668,278.524 45.483 C 278.736 45.332,278.882 45.000,278.850 44.744 C 278.817 44.488,278.770 44.038,278.744 43.742 C 278.716 43.415,278.407 43.261,277.953 43.349 C 277.283 43.478,277.209 43.292,277.209 41.467 C 277.209 40.098,277.059 39.440,276.744 39.436 C 276.408 39.432,276.422 39.340,276.793 39.105 C 277.197 38.849,277.137 38.725,276.514 38.527 C 275.855 38.318,275.720 37.982,275.715 36.533 C 275.709 34.659,275.474 34.072,274.618 33.797 C 274.318 33.700,274.047 33.131,274.015 32.531 C 273.932 30.972,273.926 30.961,273.209 31.018 C 272.717 31.057,272.586 30.833,272.671 30.096 C 272.753 29.397,272.484 28.870,271.714 28.223 C 271.126 27.728,270.710 27.125,270.791 26.884 C 270.871 26.643,270.539 26.346,270.053 26.224 C 269.350 26.048,269.174 25.762,269.190 24.823 C 269.205 23.893,268.992 23.538,268.186 23.150 C 267.534 22.836,267.161 22.361,267.157 21.840 C 267.152 21.176,267.084 21.128,266.791 21.581 C 266.408 22.174,266.377 22.108,266.268 20.465 C 266.248 20.158,266.064 19.899,265.860 19.889 C 264.787 19.836,263.863 19.223,263.664 18.431 C 263.365 17.238,262.358 16.280,261.678 16.541 C 261.299 16.686,261.193 16.578,261.340 16.196 C 261.568 15.602,260.375 14.726,259.936 15.165 C 259.796 15.305,259.786 15.148,259.913 14.817 C 260.135 14.237,259.565 13.608,258.791 13.579 C 258.586 13.571,258.460 13.309,258.511 12.996 C 258.569 12.640,258.099 12.246,257.254 11.940 C 256.283 11.589,256.045 11.365,256.407 11.141 C 256.973 10.791,256.145 10.308,255.201 10.438 C 254.230 10.571,253.767 10.414,253.767 9.951 C 253.767 9.694,253.229 9.246,252.571 8.955 C 251.914 8.663,251.580 8.357,251.830 8.274 C 252.079 8.191,252.194 7.977,252.083 7.798 C 251.973 7.620,251.610 7.579,251.276 7.707 C 250.864 7.865,250.757 7.797,250.943 7.496 C 251.094 7.251,251.080 7.075,250.911 7.105 C 250.037 7.256,249.302 7.014,249.302 6.574 C 249.302 6.301,249.093 6.052,248.837 6.022 C 246.397 5.729,245.802 5.414,245.882 4.456 C 245.891 4.348,245.241 4.269,244.437 4.279 C 243.101 4.297,242.914 4.193,243.009 3.483 C 243.070 3.027,242.214 2.743,240.520 2.655 C 238.763 2.564,237.395 1.971,237.395 1.300 C 237.395 1.083,236.406 0.912,235.093 0.903 C 233.657 0.892,232.736 0.719,232.644 0.443 C 232.458 -0.114,204.785 -0.203,204.589 0.352 M75.414 130.139 C 84.863 130.195,100.435 130.195,110.018 130.139 C 119.601 130.084,111.870 130.039,92.837 130.039 C 73.805 130.039,65.964 130.084,75.414 130.139 M223.912 216.103 C 223.823 286.972,223.761 293.881,223.212 294.720 C 222.880 295.225,222.484 296.222,222.331 296.936 C 222.178 297.649,221.737 298.532,221.352 298.898 C 220.967 299.264,220.651 299.689,220.651 299.843 C 220.651 300.534,216.367 304.508,214.903 305.175 C 214.387 305.410,213.612 306.331,213.182 307.220 C 212.751 308.109,212.258 308.837,212.085 308.837 C 211.912 308.837,211.666 309.169,211.537 309.575 C 211.254 310.468,208.368 313.293,207.734 313.298 C 207.485 313.301,207.103 313.637,206.884 314.047 C 206.665 314.456,206.165 314.791,205.773 314.791 C 205.381 314.791,204.911 315.057,204.729 315.383 C 204.533 315.732,203.342 316.196,201.827 316.512 C 200.413 316.808,198.586 317.205,197.767 317.396 C 196.906 317.596,181.400 317.744,160.930 317.748 C 141.488 317.751,125.414 317.776,125.209 317.804 C 125.005 317.833,124.670 317.820,124.465 317.776 C 122.963 317.456,122.910 317.479,122.961 318.426 C 122.989 318.957,123.255 319.458,123.553 319.538 C 124.005 319.661,124.002 319.615,123.535 319.256 C 123.039 318.875,123.039 318.844,123.535 318.977 C 123.847 319.061,124.145 319.650,124.210 320.315 C 124.283 321.057,124.479 321.408,124.733 321.252 C 124.984 321.096,125.031 321.175,124.855 321.459 C 124.542 321.965,125.901 323.463,126.306 323.059 C 126.441 322.924,126.440 323.101,126.305 323.453 C 126.081 324.039,126.447 324.279,127.349 324.137 C 127.502 324.113,127.647 324.553,127.671 325.116 C 127.694 325.679,127.753 326.307,127.800 326.512 C 127.848 326.716,127.915 327.051,127.949 327.256 C 127.983 327.460,128.151 327.407,128.322 327.138 C 128.548 326.782,128.762 326.960,129.106 327.789 C 129.392 328.480,129.850 328.930,130.266 328.930 C 130.725 328.930,130.882 329.116,130.739 329.489 C 130.408 330.350,130.926 331.907,131.542 331.907 C 131.845 331.907,132.114 332.074,132.140 332.279 C 132.165 332.484,132.207 332.860,132.233 333.116 C 132.258 333.372,132.669 333.637,133.145 333.704 C 133.689 333.781,133.939 334.012,133.819 334.327 C 133.699 334.637,134.044 334.972,134.726 335.210 C 135.331 335.421,135.781 335.803,135.727 336.059 C 135.672 336.315,135.879 336.532,136.186 336.541 C 136.513 336.551,136.793 336.982,136.862 337.581 C 136.945 338.304,137.191 338.605,137.699 338.605 C 138.177 338.605,138.419 338.861,138.419 339.371 C 138.419 339.792,138.567 340.045,138.749 339.933 C 138.930 339.821,139.056 340.016,139.028 340.367 C 139.000 340.718,139.144 341.019,139.349 341.037 C 139.553 341.054,140.474 341.805,141.395 342.705 C 142.316 343.605,142.735 344.098,142.326 343.799 C 141.638 343.297,141.620 343.305,142.092 343.907 C 142.373 344.265,142.815 344.558,143.076 344.558 C 143.336 344.558,143.651 344.827,143.777 345.155 C 143.904 345.484,144.246 345.659,144.542 345.546 C 144.919 345.402,145.009 345.520,144.847 345.944 C 144.676 346.388,144.773 346.487,145.211 346.319 C 145.876 346.064,146.752 346.875,146.322 347.350 C 146.171 347.517,146.256 347.534,146.512 347.387 C 146.771 347.237,146.977 347.311,146.977 347.553 C 146.977 347.791,147.207 347.898,147.489 347.790 C 147.801 347.670,147.982 347.828,147.954 348.194 C 147.928 348.524,148.283 348.986,148.742 349.221 C 149.201 349.456,149.479 349.746,149.359 349.866 C 149.238 349.986,149.657 350.352,150.288 350.678 C 150.920 351.005,151.396 351.470,151.346 351.712 C 151.254 352.162,151.490 352.244,153.116 352.326 C 153.778 352.359,154.047 352.584,154.047 353.105 C 154.047 353.643,154.219 353.775,154.698 353.603 C 155.056 353.475,155.229 353.502,155.082 353.665 C 154.804 353.973,156.628 355.598,157.086 355.449 C 157.231 355.402,157.450 355.680,157.573 356.066 C 157.695 356.452,158.049 356.866,158.359 356.985 C 158.734 357.128,158.835 357.046,158.662 356.740 C 158.460 356.380,158.513 356.381,158.904 356.744 C 159.179 357.000,159.713 357.209,160.091 357.209 C 160.532 357.209,160.738 357.436,160.667 357.843 C 160.585 358.322,160.871 358.504,161.839 358.588 C 163.093 358.698,163.854 359.298,163.488 359.889 C 163.387 360.052,163.784 360.186,164.369 360.186 C 164.954 360.186,165.658 360.395,165.934 360.651 C 166.335 361.023,166.382 361.023,166.172 360.651 C 166.028 360.395,166.087 360.186,166.304 360.186 C 166.520 360.186,166.698 360.510,166.698 360.905 C 166.698 361.327,167.043 361.730,167.535 361.879 C 167.995 362.020,168.675 362.401,169.045 362.726 C 169.415 363.051,170.164 363.377,170.710 363.450 C 171.256 363.523,171.948 363.781,172.248 364.024 C 172.692 364.382,172.735 364.360,172.482 363.907 C 172.310 363.600,172.536 363.726,172.983 364.186 C 173.430 364.647,174.240 365.023,174.781 365.023 C 175.323 365.023,176.120 365.356,176.552 365.762 C 177.086 366.263,177.927 366.522,179.176 366.569 C 180.186 366.608,180.816 366.705,180.574 366.785 C 179.434 367.165,180.637 368.000,182.326 368.000 C 183.617 368.000,184.169 368.164,184.335 368.597 C 184.465 368.935,184.803 369.102,185.115 368.982 C 185.432 368.861,185.628 368.963,185.577 369.223 C 185.517 369.529,186.149 369.689,187.535 369.720 C 190.491 369.785,190.588 369.807,190.276 370.326 C 190.091 370.633,190.213 370.615,190.635 370.273 C 190.986 369.988,191.381 369.862,191.513 369.993 C 191.644 370.125,191.562 370.233,191.330 370.233 C 191.097 370.233,191.001 370.476,191.115 370.774 C 191.278 371.198,192.053 371.303,194.708 371.261 C 197.035 371.225,198.139 371.346,198.240 371.650 C 198.466 372.330,230.326 372.286,230.326 371.606 C 230.326 371.238,231.095 371.135,233.480 371.185 C 235.215 371.221,236.555 371.123,236.459 370.967 C 236.362 370.810,236.542 370.583,236.859 370.462 C 237.188 370.335,237.337 370.398,237.207 370.609 C 237.082 370.811,237.172 370.977,237.408 370.977 C 237.644 370.977,237.929 370.624,238.042 370.192 C 238.227 369.487,238.428 369.431,240.026 369.643 C 241.114 369.787,241.898 369.728,242.045 369.491 C 242.176 369.278,242.482 369.223,242.723 369.368 C 243.005 369.536,242.989 369.416,242.680 369.035 C 242.060 368.270,242.464 368.035,244.607 367.912 C 245.552 367.858,246.328 367.647,246.331 367.442 C 246.334 367.237,246.502 367.321,246.703 367.628 C 247.025 368.118,247.113 368.120,247.422 367.638 C 247.657 367.272,247.626 366.995,247.329 366.806 C 247.084 366.650,247.888 366.518,249.116 366.512 C 251.479 366.500,252.541 366.120,252.119 365.437 C 251.867 365.030,252.113 364.966,254.192 364.902 C 254.833 364.882,255.110 364.705,254.990 364.392 C 254.767 363.811,256.155 363.241,257.446 363.383 C 258.035 363.448,258.668 363.174,259.162 362.640 C 259.593 362.175,260.216 361.835,260.546 361.883 C 260.911 361.937,261.236 361.620,261.372 361.079 C 261.576 360.262,262.660 359.907,264.256 360.134 C 264.397 360.154,264.449 359.839,264.371 359.434 C 264.293 359.029,264.428 358.683,264.673 358.666 C 264.917 358.648,265.702 358.606,266.419 358.573 C 267.451 358.524,267.722 358.357,267.725 357.767 C 267.729 357.198,267.937 357.053,268.615 357.149 C 269.289 357.244,269.447 357.136,269.278 356.695 C 269.005 355.984,269.328 355.766,270.832 355.652 C 271.663 355.588,272.000 355.374,272.000 354.911 C 272.000 354.552,272.335 354.080,272.744 353.860 C 273.296 353.565,273.488 353.577,273.488 353.909 C 273.488 354.535,273.897 354.061,274.008 353.307 C 274.121 352.537,274.928 352.005,275.594 352.260 C 275.879 352.370,276.093 352.204,276.093 351.876 C 276.093 351.559,276.259 351.197,276.461 351.072 C 276.680 350.937,276.732 351.116,276.590 351.516 C 276.378 352.111,276.436 352.102,277.105 351.442 C 277.519 351.033,277.801 350.597,277.732 350.473 C 277.585 350.213,279.481 349.230,279.925 349.336 C 280.088 349.375,280.194 349.195,280.160 348.936 C 280.028 347.933,280.216 347.663,281.023 347.691 C 281.622 347.713,281.861 347.509,281.861 346.977 C 281.861 346.567,282.071 346.212,282.326 346.186 C 282.582 346.160,282.958 346.119,283.163 346.093 C 283.367 346.067,283.535 345.790,283.535 345.476 C 283.535 344.754,285.422 342.884,286.150 342.884 C 286.490 342.884,286.680 342.553,286.650 342.012 C 286.611 341.284,286.750 341.168,287.492 341.310 C 288.145 341.435,288.355 341.327,288.284 340.904 C 288.230 340.588,288.524 340.234,288.936 340.118 C 289.371 339.996,289.684 339.594,289.680 339.163 C 289.677 338.753,289.884 338.398,290.140 338.372 C 290.395 338.347,290.772 338.305,290.977 338.279 C 291.181 338.253,291.349 337.898,291.349 337.488 C 291.349 336.992,291.597 336.744,292.093 336.744 C 292.589 336.744,292.837 336.496,292.837 336.000 C 292.837 335.497,293.085 335.256,293.603 335.256 C 294.025 335.256,294.266 335.088,294.140 334.884 C 294.013 334.679,294.105 334.512,294.343 334.512 C 294.582 334.512,294.683 334.267,294.568 333.967 C 294.451 333.661,294.719 333.132,295.180 332.758 C 295.631 332.392,296.000 331.766,296.000 331.366 C 296.000 330.912,296.324 330.562,296.859 330.435 C 297.332 330.324,297.708 330.107,297.696 329.953 C 297.628 329.089,297.747 328.930,298.458 328.930 C 298.995 328.930,299.176 328.758,299.033 328.384 C 298.918 328.084,298.968 327.749,299.144 327.639 C 299.321 327.530,299.377 327.106,299.271 326.697 C 299.164 326.288,299.258 325.953,299.480 325.953 C 299.702 325.953,299.787 326.207,299.668 326.516 C 299.513 326.920,299.622 327.013,300.058 326.846 C 300.392 326.718,300.642 326.423,300.614 326.190 C 300.478 325.061,300.690 324.073,301.023 324.279 C 301.228 324.406,301.398 324.290,301.401 324.022 C 301.406 323.631,301.469 323.633,301.724 324.035 C 302.100 324.629,302.545 323.255,302.366 322.052 C 302.299 321.603,302.562 321.153,303.035 320.905 C 303.463 320.681,303.772 320.302,303.721 320.063 C 303.670 319.824,303.805 319.628,304.022 319.628 C 304.239 319.628,304.320 319.472,304.202 319.282 C 304.084 319.091,304.184 318.814,304.424 318.666 C 304.696 318.498,304.759 318.558,304.594 318.826 C 304.448 319.063,304.498 319.256,304.705 319.256 C 304.913 319.256,305.193 318.670,305.327 317.953 C 305.461 317.237,305.738 316.651,305.942 316.651 C 306.145 316.651,306.209 316.381,306.082 316.052 C 305.932 315.661,306.015 315.514,306.321 315.632 C 306.636 315.752,306.823 315.370,306.890 314.476 C 306.944 313.742,307.178 312.968,307.410 312.757 C 307.707 312.484,307.753 312.508,307.568 312.837 C 307.303 313.307,307.779 313.492,308.191 313.080 C 308.548 312.724,308.061 311.814,307.514 311.814 C 306.166 311.814,306.682 306.880,308.218 305.087 C 308.558 304.689,308.837 303.779,308.837 303.066 C 308.837 302.301,309.119 301.486,309.523 301.082 C 309.926 300.679,310.304 299.586,310.441 298.426 C 310.570 297.343,310.931 296.173,311.243 295.828 C 311.558 295.481,311.915 294.131,312.043 292.809 C 312.170 291.494,312.501 290.055,312.777 289.612 C 313.054 289.168,313.389 287.410,313.523 285.705 C 313.657 284.000,314.081 281.690,314.465 280.571 C 315.594 277.280,315.550 154.200,314.419 152.089 C 314.009 151.325,313.674 150.461,313.674 150.167 C 313.674 149.874,313.445 149.405,313.165 149.125 C 312.884 148.844,312.388 148.099,312.062 147.469 C 311.736 146.838,311.212 146.224,310.897 146.103 C 310.583 145.983,310.326 145.658,310.326 145.383 C 310.326 145.107,309.740 144.603,309.023 144.261 C 308.307 143.919,307.721 143.470,307.721 143.262 C 307.721 143.054,307.393 142.884,306.991 142.884 C 306.590 142.884,305.962 142.563,305.596 142.171 C 304.518 141.018,300.025 140.633,287.996 140.662 C 276.094 140.691,275.567 140.633,275.819 139.311 L 275.984 138.447 249.997 138.426 L 224.010 138.405 223.912 216.103 M113.660 167.256 C 113.660 176.465,113.708 180.179,113.767 175.509 C 113.826 170.840,113.826 163.305,113.767 158.765 C 113.708 154.226,113.660 158.047,113.660 167.256 M113.488 295.464 C 113.488 295.885,113.656 296.126,113.860 296.000 C 114.065 295.874,114.235 296.073,114.238 296.443 C 114.243 297.014,114.299 297.031,114.605 296.558 C 115.220 295.606,115.038 294.698,114.233 294.698 C 113.729 294.698,113.488 294.946,113.488 295.464 M115.797 300.504 C 115.461 300.870,115.425 301.225,115.679 301.677 C 116.018 302.281,116.060 302.283,116.286 301.696 C 116.694 300.636,116.380 299.870,115.797 300.504 M117.514 304.187 C 117.375 304.329,117.364 304.722,117.491 305.060 C 117.691 305.594,117.639 305.608,117.093 305.164 C 116.326 304.540,116.290 305.040,117.031 306.019 C 117.728 306.941,118.037 306.615,117.887 305.116 C 117.821 304.463,117.653 304.045,117.514 304.187 M118.512 309.209 C 118.109 309.860,118.706 310.410,119.289 309.926 C 119.578 309.686,119.814 309.343,119.814 309.164 C 119.814 308.715,118.795 308.751,118.512 309.209 M121.830 315.094 C 121.279 315.477,121.413 316.382,122.047 316.555 C 122.543 316.691,122.543 316.664,122.047 316.313 C 121.565 315.972,121.578 315.918,122.140 315.913 C 122.498 315.910,122.791 315.749,122.791 315.557 C 122.791 315.053,122.259 314.797,121.830 315.094 " stroke="none" fill="#7b84eb" fill-rule="evenodd"></path><path id="path2" d="M159.312 79.237 C 159.472 79.717,159.982 79.803,160.028 79.358 C 160.043 79.210,159.855 79.021,159.609 78.940 C 159.364 78.858,159.230 78.992,159.312 79.237 M58.273 131.936 C 58.148 132.260,58.047 136.022,58.047 140.295 L 58.047 148.064 74.586 148.171 C 87.546 148.256,91.231 148.384,91.610 148.763 C 91.999 149.152,92.129 158.148,92.279 194.902 L 92.465 240.558 102.326 240.558 L 112.186 240.558 112.281 194.928 C 112.367 153.065,112.426 149.256,112.988 148.789 C 113.483 148.378,116.805 148.258,130.110 148.171 L 146.619 148.064 146.519 139.799 L 146.419 131.535 102.459 131.440 C 62.614 131.355,58.478 131.401,58.273 131.936 M112.372 290.001 C 112.372 290.078,112.623 290.350,112.930 290.605 C 113.387 290.984,113.488 290.959,113.488 290.464 C 113.488 290.132,113.237 289.860,112.930 289.860 C 112.623 289.860,112.372 289.924,112.372 290.001 " stroke="none" fill="#fafafb" fill-rule="evenodd"></path><path id="path3" d="M194.605 84.816 C 193.960 85.270,194.639 85.937,195.755 85.948 C 197.328 85.963,202.850 92.412,203.349 94.816 C 203.490 95.495,203.839 96.499,204.126 97.048 C 204.533 97.829,204.647 100.155,204.649 107.710 C 204.650 114.023,204.810 118.055,205.108 119.338 L 205.565 121.302 207.855 121.302 C 209.833 121.302,210.172 121.404,210.340 122.047 C 210.580 122.964,211.235 123.018,211.464 122.140 C 211.627 121.519,211.637 121.519,211.678 122.140 C 211.723 122.822,213.209 123.093,213.209 122.419 C 213.209 122.214,212.916 122.043,212.558 122.038 C 212.032 122.032,212.086 121.893,212.837 121.315 L 213.767 120.600 213.767 109.881 C 213.767 98.673,213.285 95.116,211.477 92.994 C 211.202 92.671,210.977 92.220,210.977 91.993 C 210.977 91.249,205.797 86.326,205.015 86.326 C 204.761 86.326,203.972 85.966,203.262 85.528 C 201.779 84.611,195.615 84.105,194.605 84.816 M205.073 139.814 C 204.864 140.643,204.621 167.624,204.474 206.272 C 204.237 268.323,204.194 271.398,203.544 272.691 C 203.169 273.436,202.751 274.854,202.614 275.841 C 202.476 276.837,202.046 277.954,201.648 278.352 C 201.253 278.747,200.930 279.399,200.930 279.801 C 200.930 280.203,200.595 280.711,200.186 280.930 C 199.777 281.149,199.442 281.554,199.442 281.830 C 199.442 282.106,199.107 282.419,198.698 282.526 C 198.288 282.633,197.953 282.988,197.953 283.314 C 197.953 283.642,197.647 283.907,197.267 283.907 C 196.889 283.907,196.292 284.225,195.940 284.614 C 195.588 285.003,194.730 285.429,194.034 285.559 C 193.338 285.690,192.482 286.083,192.132 286.433 C 191.542 287.023,188.672 287.084,152.957 287.264 C 131.761 287.371,114.393 287.497,114.362 287.543 C 113.353 289.048,113.245 292.087,114.209 291.835 C 115.065 291.611,115.577 293.520,115.231 295.649 C 115.060 296.703,115.140 296.930,115.679 296.930 C 116.040 296.930,116.733 297.354,117.219 297.871 L 118.103 298.811 154.772 298.649 C 174.941 298.560,192.447 298.388,193.674 298.267 C 203.825 297.264,205.136 296.770,209.536 292.296 C 210.533 291.282,211.349 290.290,211.349 290.092 C 211.349 289.895,211.580 289.469,211.862 289.146 C 213.823 286.903,213.729 290.384,213.870 214.512 C 213.942 176.037,213.891 143.177,213.757 141.488 L 213.515 138.419 209.469 138.419 L 205.424 138.419 205.073 139.814 " stroke="none" fill="#3f4784" fill-rule="evenodd"></path><path id="path4" d="M198.698 2.047 C 198.318 2.504,198.344 2.605,198.838 2.605 C 199.170 2.605,199.442 2.353,199.442 2.047 C 199.442 1.740,199.379 1.488,199.301 1.488 C 199.224 1.488,198.952 1.740,198.698 2.047 M58.121 131.051 C 57.443 131.729,57.491 147.850,58.173 148.416 C 58.518 148.702,63.654 148.859,74.824 148.926 L 90.977 149.023 91.180 194.741 C 91.378 239.046,91.406 240.474,92.089 240.973 C 93.305 241.862,111.681 241.714,112.500 240.808 C 113.066 240.183,113.116 236.449,113.116 194.708 C 113.116 153.635,113.173 149.267,113.705 149.063 C 114.029 148.939,121.407 148.837,130.101 148.837 C 140.287 148.837,146.165 148.700,146.629 148.452 C 147.708 147.875,147.743 132.193,146.668 131.220 C 145.785 130.421,58.917 130.255,58.121 131.051 M146.519 139.799 L 146.619 148.064 130.110 148.171 C 116.805 148.258,113.483 148.378,112.988 148.789 C 112.426 149.256,112.367 153.065,112.281 194.928 L 112.186 240.558 102.326 240.558 L 92.465 240.558 92.279 194.902 C 92.129 158.148,91.999 149.152,91.610 148.763 C 91.231 148.384,87.546 148.256,74.586 148.171 L 58.047 148.064 58.047 140.295 C 58.047 136.022,58.148 132.260,58.273 131.936 C 58.478 131.401,62.614 131.355,102.459 131.440 L 146.419 131.535 146.519 139.799 " stroke="none" fill="#a4acdc" fill-rule="evenodd"></path><path id="path5" d="M158.613 75.806 C 158.484 76.144,158.576 76.487,158.819 76.568 C 159.062 76.649,159.159 76.879,159.035 77.080 C 158.910 77.281,159.164 77.538,159.598 77.652 C 160.263 77.826,160.313 77.951,159.915 78.442 C 159.547 78.897,159.545 78.964,159.907 78.747 C 160.255 78.538,160.372 78.943,160.372 80.350 C 160.372 81.894,160.489 82.233,161.023 82.234 C 193.257 82.314,199.627 82.482,201.111 83.288 C 201.926 83.731,203.047 84.093,203.601 84.093 C 204.156 84.093,204.828 84.401,205.095 84.777 C 205.363 85.153,206.000 85.568,206.512 85.699 C 208.315 86.160,213.209 91.787,213.209 93.399 C 213.209 93.672,213.502 94.219,213.860 94.614 C 214.456 95.272,214.512 96.505,214.512 108.975 L 214.512 122.616 219.119 122.627 C 221.654 122.633,223.549 122.578,223.332 122.506 C 223.061 122.416,222.924 117.129,222.898 105.761 C 222.856 87.772,222.846 87.669,220.719 83.535 C 219.685 81.525,215.398 77.043,214.480 77.012 C 214.293 77.005,213.302 76.586,212.279 76.081 L 210.419 75.162 184.634 75.177 C 161.018 75.191,158.829 75.243,158.613 75.806 M57.791 129.953 C 56.635 131.751,56.558 132.387,56.558 140.090 C 56.558 145.965,56.678 148.101,57.023 148.388 C 57.394 148.696,57.467 147.028,57.382 140.203 C 57.289 132.760,57.356 131.509,57.887 130.698 L 58.498 129.765 102.372 129.926 C 143.340 130.076,146.289 130.129,146.890 130.730 C 147.721 131.559,148.084 146.717,147.308 148.172 C 146.897 148.945,146.912 148.976,147.474 148.513 C 148.495 147.671,148.391 132.400,147.353 130.698 L 146.616 129.488 102.353 129.488 C 67.351 129.488,58.028 129.586,57.791 129.953 M214.609 220.761 C 214.512 302.421,214.505 303.111,213.767 304.165 C 212.855 305.468,212.128 306.533,211.190 307.945 C 209.724 310.149,206.030 313.345,203.585 314.524 L 201.116 315.715 162.892 315.829 C 123.258 315.947,123.163 315.943,123.163 314.420 C 123.163 314.026,122.850 313.404,122.468 313.038 C 122.086 312.672,121.667 311.781,121.536 311.058 C 121.406 310.335,120.965 309.458,120.557 309.108 C 120.148 308.759,119.814 308.136,119.814 307.725 C 119.814 307.183,119.567 306.977,118.919 306.977 C 118.206 306.977,118.063 307.129,118.218 307.721 C 118.329 308.145,118.725 308.465,119.140 308.465 C 119.666 308.465,119.848 308.696,119.799 309.302 C 119.660 311.017,119.808 311.475,120.465 311.365 C 120.998 311.276,121.137 311.581,121.230 313.042 C 121.334 314.658,121.418 314.804,122.116 314.583 C 122.803 314.365,122.869 314.463,122.718 315.488 L 122.550 316.637 159.600 316.647 C 197.718 316.658,201.240 316.540,203.788 315.175 C 204.564 314.759,205.345 314.419,205.523 314.419 C 206.283 314.419,210.915 309.683,212.099 307.697 C 213.181 305.882,213.338 305.713,217.016 302.417 C 219.824 299.901,220.892 298.259,222.285 294.320 C 222.820 292.806,222.888 285.032,222.974 215.529 L 223.070 138.419 218.888 138.419 L 214.706 138.419 214.609 220.761 M301.530 138.977 C 301.648 139.284,301.540 139.537,301.291 139.541 C 300.343 139.552,302.008 140.271,303.900 140.666 C 304.971 140.890,305.945 141.232,306.065 141.426 C 306.185 141.620,306.906 142.096,307.668 142.485 C 311.590 144.486,314.877 149.453,315.565 154.419 C 316.100 158.283,315.792 278.592,315.241 280.930 C 315.024 281.851,314.655 283.777,314.420 285.209 C 314.186 286.642,313.675 289.070,313.284 290.605 C 312.894 292.140,312.468 294.065,312.338 294.884 C 312.209 295.702,311.882 296.724,311.613 297.155 C 311.344 297.585,311.003 298.590,310.856 299.387 C 310.709 300.185,310.278 301.421,309.899 302.134 C 309.520 302.847,309.204 303.768,309.198 304.181 C 309.191 304.593,308.774 305.767,308.271 306.791 C 307.738 307.875,307.354 309.311,307.352 310.233 C 307.348 312.425,307.892 312.223,307.971 310.004 C 308.006 309.000,308.378 307.558,308.808 306.756 C 309.233 305.963,309.581 305.017,309.581 304.655 C 309.581 304.293,309.916 303.372,310.326 302.609 C 310.735 301.845,311.071 300.883,311.072 300.471 C 311.073 300.058,311.335 299.221,311.654 298.610 C 311.973 297.998,312.467 296.390,312.751 295.035 C 313.036 293.680,313.437 292.171,313.642 291.681 C 313.847 291.191,314.181 289.702,314.384 288.372 C 314.586 287.042,315.003 284.781,315.310 283.349 C 316.568 277.480,317.387 167.957,316.263 156.095 C 315.538 148.457,311.039 142.351,304.744 140.463 C 303.835 140.190,303.406 139.822,303.323 139.245 C 303.236 138.640,302.952 138.419,302.260 138.419 C 301.574 138.419,301.374 138.571,301.530 138.977 M74.047 149.203 L 90.233 149.395 90.419 195.059 L 90.605 240.724 91.452 241.571 C 92.483 242.603,110.524 243.122,112.301 242.171 C 114.321 241.090,114.232 243.253,114.238 194.902 C 114.241 170.283,114.376 149.932,114.537 149.678 C 114.761 149.326,118.597 149.194,130.810 149.116 L 146.791 149.015 130.791 148.932 C 121.991 148.886,114.588 148.977,114.341 149.134 C 113.996 149.353,113.835 159.973,113.647 194.803 C 113.441 232.851,113.317 240.321,112.878 241.023 C 112.357 241.858,112.323 241.860,102.344 241.860 L 92.333 241.860 91.562 240.880 C 90.791 239.900,90.791 239.865,90.791 194.594 C 90.791 153.625,90.734 149.267,90.202 149.063 C 89.878 148.939,82.469 148.876,73.737 148.924 L 57.860 149.011 74.047 149.203 M115.606 299.032 C 116.188 299.158,116.468 299.548,116.585 300.395 C 116.742 301.539,116.747 301.535,116.700 300.279 C 116.658 299.169,116.514 298.968,115.721 298.916 C 114.944 298.865,114.925 298.884,115.606 299.032 M116.465 303.628 C 116.465 303.833,116.591 303.980,116.744 303.956 C 117.542 303.830,117.917 304.081,118.063 304.837 C 118.180 305.443,118.238 305.340,118.275 304.465 C 118.319 303.410,118.207 303.256,117.395 303.256 C 116.884 303.256,116.465 303.423,116.465 303.628 " stroke="none" fill="#6e76d4" fill-rule="evenodd"></path><path id="path6" d="M57.688 130.952 C 56.951 132.328,57.187 147.915,57.953 148.495 C 58.507 148.914,58.535 148.910,58.140 148.466 C 57.490 147.737,57.473 131.699,58.121 131.051 C 58.917 130.255,145.785 130.421,146.668 131.220 C 147.413 131.894,147.625 131.402,146.902 130.679 C 146.015 129.792,58.165 130.061,57.688 130.952 M147.507 139.907 C 147.507 144.307,147.561 146.107,147.626 143.907 C 147.692 141.707,147.692 138.107,147.626 135.907 C 147.561 133.707,147.507 135.507,147.507 139.907 M90.409 149.082 C 90.667 149.210,90.791 164.010,90.791 194.585 C 90.791 239.865,90.791 239.900,91.562 240.880 L 92.333 241.860 102.307 241.860 C 111.130 241.860,112.340 241.789,112.792 241.245 C 113.216 240.734,113.334 232.939,113.488 195.092 C 113.651 155.179,113.743 149.506,114.233 149.161 C 114.694 148.835,114.672 148.805,114.109 148.988 C 113.734 149.110,113.357 149.209,113.272 149.209 C 113.186 149.209,113.116 169.695,113.116 194.733 C 113.116 238.363,113.088 240.282,112.436 240.873 C 111.501 241.718,93.231 241.809,92.089 240.973 C 91.406 240.474,91.378 239.047,91.180 194.771 C 91.017 158.171,90.882 149.066,90.502 148.989 C 90.241 148.936,90.200 148.978,90.409 149.082 " stroke="none" fill="#999dd9" fill-rule="evenodd"></path><path id="path7" d="M12.457 83.206 C 11.931 83.775,11.323 84.091,10.999 83.967 C 10.693 83.849,10.338 83.922,10.211 84.127 C 10.061 84.370,9.797 84.349,9.455 84.066 C 9.041 83.722,8.930 83.753,8.930 84.212 C 8.930 84.532,8.737 84.913,8.501 85.059 C 8.244 85.217,8.172 85.161,8.321 84.920 C 8.458 84.698,8.374 84.395,8.135 84.247 C 7.895 84.099,7.794 84.131,7.910 84.319 C 8.186 84.766,7.214 86.086,6.798 85.829 C 6.621 85.720,6.233 85.784,5.936 85.972 C 5.468 86.268,5.470 86.317,5.953 86.333 C 6.288 86.344,6.140 86.558,5.586 86.864 C 5.077 87.146,4.555 87.311,4.426 87.232 C 4.297 87.152,4.211 87.376,4.235 87.729 C 4.259 88.083,4.183 88.372,4.066 88.372 C 3.646 88.372,2.682 89.556,2.530 90.259 C 2.444 90.654,2.181 90.937,1.945 90.888 C 1.687 90.835,1.610 91.046,1.751 91.414 C 1.909 91.827,1.844 91.941,1.552 91.760 C 1.312 91.612,1.116 91.668,1.116 91.885 C 1.116 92.102,1.261 92.279,1.437 92.279 C 1.613 92.279,1.678 92.696,1.580 93.205 C 1.483 93.714,1.252 94.038,1.068 93.923 C 0.883 93.809,0.827 93.562,0.943 93.374 C 1.060 93.186,0.895 93.131,0.577 93.253 C -0.275 93.580,-0.303 119.814,0.549 119.814 C 1.005 119.814,1.115 118.824,1.200 113.953 C 1.271 109.888,1.430 108.116,1.718 108.170 C 1.947 108.212,2.520 107.835,2.992 107.332 C 3.464 106.830,4.233 106.419,4.701 106.419 C 5.216 106.419,6.095 105.831,6.928 104.930 C 7.886 103.895,8.614 103.442,9.319 103.442 C 9.990 103.442,10.539 103.127,10.943 102.512 C 11.333 101.915,11.898 101.581,12.517 101.581 C 13.155 101.581,13.973 101.076,14.927 100.093 C 15.851 99.141,16.705 98.605,17.299 98.605 C 17.823 98.605,18.428 98.281,18.691 97.860 C 18.962 97.426,19.559 97.116,20.125 97.116 C 20.658 97.116,21.397 96.781,21.767 96.372 C 22.138 95.963,22.826 95.628,23.297 95.628 C 23.826 95.628,24.763 94.990,25.751 93.955 C 26.876 92.778,27.648 92.282,28.359 92.281 C 28.987 92.280,29.520 91.998,29.767 91.535 C 30.027 91.051,30.547 90.791,31.256 90.791 C 31.965 90.791,32.485 90.531,32.744 90.047 C 32.995 89.579,33.523 89.302,34.168 89.302 C 34.894 89.302,35.607 88.852,36.612 87.759 C 37.455 86.843,38.507 86.118,39.202 85.976 C 42.186 85.366,39.851 85.012,31.628 84.827 C 26.819 84.719,22.967 84.558,23.070 84.469 C 23.172 84.381,28.028 84.213,33.860 84.096 L 44.465 83.884 34.140 83.803 C 26.112 83.739,23.835 83.617,23.907 83.256 C 23.977 82.907,23.009 82.791,20.035 82.791 C 17.854 82.791,16.147 82.666,16.241 82.514 C 16.563 81.996,14.329 82.363,13.588 82.950 C 12.900 83.495,12.884 83.491,13.354 82.884 C 14.135 81.876,13.468 82.115,12.457 83.206 M160.846 82.756 C 161.369 83.153,165.262 83.301,179.636 83.469 C 193.044 83.625,198.446 83.817,200.372 84.205 C 202.975 84.730,206.884 86.446,206.884 87.064 C 206.884 87.244,207.212 87.496,207.612 87.623 C 208.013 87.750,209.016 88.724,209.841 89.788 C 210.667 90.851,211.521 91.933,211.739 92.193 C 213.462 94.244,213.733 96.447,213.856 109.387 C 213.929 117.113,214.116 121.986,214.349 122.219 C 215.109 122.979,214.622 95.455,213.860 94.614 C 213.502 94.218,213.209 93.672,213.209 93.399 C 213.209 91.787,208.315 86.160,206.512 85.699 C 206.000 85.568,205.363 85.153,205.095 84.777 C 204.828 84.401,204.156 84.093,203.601 84.093 C 203.047 84.093,201.926 83.731,201.111 83.288 C 199.247 82.275,159.523 81.751,160.846 82.756 M56.552 129.867 C 55.834 130.584,55.805 131.017,55.900 139.604 L 56.000 148.591 57.116 149.245 C 58.132 149.840,59.665 149.902,74.138 149.926 L 90.043 149.953 90.140 185.581 L 90.238 221.209 90.235 185.302 L 90.233 149.395 74.010 149.209 C 61.017 149.060,57.666 148.922,57.173 148.513 C 56.225 147.725,56.306 132.430,57.267 130.791 L 57.921 129.674 102.267 129.580 L 146.614 129.485 147.352 130.696 C 148.554 132.667,148.481 147.779,147.266 148.630 C 146.620 149.083,146.573 149.209,147.053 149.209 C 148.702 149.209,148.837 148.495,148.837 139.777 C 148.837 131.268,148.708 130.459,147.184 129.401 C 146.083 128.636,57.326 129.093,56.552 129.867 M214.234 138.791 C 214.081 139.098,213.881 172.753,213.791 213.581 C 213.627 287.634,213.438 299.914,212.407 303.442 C 211.465 306.666,215.441 306.405,165.366 306.520 L 121.058 306.622 120.625 305.673 C 120.387 305.151,119.940 304.626,119.631 304.508 C 119.246 304.360,119.065 303.751,119.055 302.565 C 119.037 300.595,116.660 297.377,115.540 297.807 C 114.703 298.128,114.858 298.722,115.814 298.858 C 116.585 298.967,116.644 299.147,116.555 301.116 C 116.461 303.205,116.482 303.256,117.440 303.256 C 118.403 303.256,118.417 303.292,118.175 305.116 C 117.935 306.924,117.954 306.977,118.871 306.977 C 119.567 306.977,119.814 307.172,119.814 307.725 C 119.814 308.136,120.148 308.759,120.557 309.108 C 120.965 309.458,121.406 310.335,121.536 311.058 C 121.667 311.781,122.086 312.672,122.468 313.038 C 122.850 313.404,123.163 314.026,123.163 314.420 C 123.163 315.943,123.258 315.947,162.892 315.829 L 201.116 315.715 203.585 314.524 C 206.030 313.345,209.724 310.149,211.190 307.945 C 212.128 306.533,212.855 305.468,213.767 304.165 C 214.504 303.114,214.513 302.420,214.609 237.040 C 214.720 161.646,214.630 137.995,214.234 138.791 M303.323 139.245 C 303.406 139.822,303.835 140.190,304.744 140.463 C 311.039 142.351,315.538 148.457,316.263 156.095 C 317.387 167.957,316.568 277.480,315.310 283.349 C 315.003 284.781,314.586 287.042,314.384 288.372 C 314.181 289.702,313.847 291.191,313.642 291.681 C 313.437 292.171,313.036 293.680,312.751 295.035 C 312.467 296.390,311.973 297.998,311.654 298.610 C 311.335 299.221,311.073 300.058,311.072 300.471 C 311.071 300.883,310.735 301.845,310.326 302.609 C 309.916 303.372,309.581 304.293,309.581 304.655 C 309.581 305.017,309.261 305.911,308.869 306.642 C 308.034 308.200,307.493 311.257,307.998 311.569 C 308.191 311.689,308.375 311.018,308.411 310.055 C 308.447 309.103,308.732 308.043,309.045 307.697 C 309.357 307.352,309.712 306.420,309.834 305.628 C 309.955 304.835,310.282 303.922,310.561 303.600 C 310.840 303.277,311.210 302.254,311.383 301.326 C 311.556 300.399,311.975 299.244,312.314 298.760 C 312.653 298.277,312.930 297.288,312.930 296.563 C 312.930 295.838,313.242 294.661,313.623 293.948 C 314.004 293.235,314.439 291.490,314.590 290.070 C 314.741 288.650,315.095 287.138,315.375 286.709 C 315.688 286.232,316.029 283.922,316.257 280.733 C 316.462 277.874,316.789 274.614,316.985 273.488 C 317.498 270.537,317.499 157.296,316.985 155.349 C 316.770 154.530,316.449 152.952,316.273 151.842 C 316.097 150.727,315.706 149.685,315.401 149.514 C 315.097 149.344,314.738 148.702,314.603 148.088 C 314.469 147.473,314.037 146.799,313.644 146.588 C 313.252 146.378,312.930 146.001,312.930 145.750 C 312.930 145.499,312.416 144.877,311.787 144.368 C 311.158 143.859,310.251 143.107,309.771 142.698 C 309.291 142.288,308.452 141.577,307.906 141.116 C 307.360 140.656,306.504 140.279,306.003 140.279 C 305.476 140.279,304.992 140.005,304.853 139.628 C 304.363 138.301,303.143 137.996,303.323 139.245 M114.458 149.798 C 114.334 150.122,114.233 170.477,114.233 195.032 C 114.233 241.716,114.271 240.598,112.608 241.945 C 111.981 242.453,111.939 242.590,112.407 242.596 C 114.528 242.626,114.401 245.358,114.610 195.403 C 114.715 170.303,114.840 149.727,114.889 149.678 C 114.937 149.630,122.051 149.544,130.698 149.488 L 146.419 149.387 130.551 149.298 C 116.373 149.219,114.660 149.272,114.458 149.798 M90.442 240.580 C 90.381 242.583,91.009 242.788,97.365 242.830 L 103.256 242.870 97.823 242.644 C 92.161 242.409,91.431 242.194,90.773 240.571 L 90.466 239.814 90.442 240.580 M113.581 293.302 C 113.816 294.006,114.977 294.106,114.977 293.423 C 114.977 293.077,114.659 292.837,114.202 292.837 C 113.747 292.837,113.490 293.030,113.581 293.302 " stroke="none" fill="#636cc6" fill-rule="evenodd"></path><path id="path8" d="M263.843 18.658 C 263.827 18.994,264.037 19.355,264.310 19.460 C 264.583 19.564,264.806 19.422,264.806 19.144 C 264.806 18.865,264.681 18.715,264.528 18.809 C 264.375 18.904,264.165 18.771,264.061 18.514 C 263.941 18.216,263.862 18.268,263.843 18.658 M158.636 74.125 L 158.635 75.349 184.467 75.244 L 210.299 75.140 212.289 76.082 C 213.384 76.600,214.401 77.023,214.550 77.023 C 215.384 77.023,219.728 81.608,220.719 83.535 C 222.846 87.669,222.856 87.770,222.898 105.783 C 222.933 120.911,223.162 124.749,223.818 121.209 C 224.381 118.175,223.834 88.038,223.193 86.794 C 222.852 86.131,222.455 85.043,222.312 84.376 C 222.168 83.709,221.816 82.912,221.528 82.605 C 221.240 82.298,220.444 81.314,219.758 80.419 C 218.463 78.728,215.621 76.279,214.954 76.279 C 214.743 76.279,214.265 76.003,213.892 75.666 C 212.147 74.086,209.115 73.900,183.477 73.806 C 166.338 73.742,159.065 73.595,158.887 73.308 C 158.749 73.084,158.636 73.452,158.636 74.125 M158.791 77.642 C 159.047 77.745,159.256 78.087,159.256 78.402 C 159.256 78.884,159.350 78.897,159.850 78.482 C 160.451 77.983,159.845 77.441,158.698 77.451 C 158.493 77.453,158.535 77.539,158.791 77.642 M128.093 130.127 C 128.656 130.212,129.577 130.212,130.140 130.127 C 130.702 130.042,130.242 129.972,129.116 129.972 C 127.991 129.972,127.530 130.042,128.093 130.127 M223.110 139.007 C 222.985 139.331,222.884 174.028,222.884 216.111 C 222.884 285.366,222.827 292.786,222.287 294.313 C 220.891 298.260,219.825 299.899,217.016 302.417 C 213.338 305.713,213.181 305.882,212.099 307.697 C 210.915 309.683,206.283 314.419,205.523 314.419 C 205.345 314.419,204.562 314.759,203.785 315.176 C 203.008 315.592,201.169 316.090,199.698 316.281 C 195.969 316.765,123.276 316.764,122.977 316.279 C 122.850 316.074,122.464 315.926,122.118 315.950 C 121.611 315.985,121.599 316.023,122.056 316.147 C 122.368 316.232,122.787 316.670,122.986 317.121 C 123.309 317.850,123.946 318.037,125.302 317.802 C 125.456 317.775,141.488 317.751,160.930 317.748 C 181.400 317.744,196.906 317.596,197.767 317.396 C 198.586 317.205,200.413 316.808,201.827 316.512 C 203.342 316.196,204.533 315.732,204.729 315.383 C 204.911 315.057,205.381 314.791,205.773 314.791 C 206.165 314.791,206.665 314.456,206.884 314.047 C 207.103 313.637,207.485 313.301,207.734 313.298 C 208.368 313.293,211.254 310.468,211.537 309.575 C 211.666 309.169,211.912 308.837,212.085 308.837 C 212.258 308.837,212.751 308.109,213.182 307.220 C 213.612 306.331,214.387 305.410,214.903 305.175 C 216.367 304.508,220.651 300.534,220.651 299.843 C 220.651 299.689,220.967 299.264,221.352 298.898 C 221.737 298.532,222.178 297.649,222.331 296.936 C 222.484 296.222,222.880 295.225,223.212 294.720 C 223.902 293.666,224.360 138.419,223.673 138.419 C 223.487 138.419,223.234 138.683,223.110 139.007 M275.977 138.659 C 274.202 140.434,275.752 140.692,287.996 140.662 C 300.025 140.633,304.518 141.018,305.596 142.171 C 305.962 142.563,306.590 142.884,306.991 142.884 C 307.393 142.884,307.721 143.054,307.721 143.262 C 307.721 143.470,308.307 143.919,309.023 144.261 C 309.740 144.603,310.326 145.107,310.326 145.383 C 310.326 145.658,310.583 145.983,310.897 146.103 C 311.212 146.224,311.736 146.838,312.062 147.469 C 312.388 148.099,312.884 148.844,313.165 149.125 C 313.445 149.405,313.674 149.874,313.674 150.167 C 313.674 150.461,314.009 151.325,314.419 152.089 C 315.550 154.200,315.594 277.280,314.465 280.571 C 314.081 281.690,313.657 284.000,313.523 285.705 C 313.389 287.410,313.054 289.168,312.777 289.612 C 312.501 290.055,312.170 291.494,312.043 292.809 C 311.915 294.131,311.558 295.481,311.243 295.828 C 310.931 296.173,310.570 297.343,310.441 298.426 C 310.304 299.586,309.926 300.679,309.523 301.082 C 309.119 301.486,308.837 302.301,308.837 303.066 C 308.837 303.779,308.558 304.689,308.218 305.087 C 307.201 306.275,306.255 310.592,306.843 311.365 C 307.261 311.916,307.327 311.777,307.340 310.326 C 307.349 309.326,307.725 307.901,308.271 306.791 C 308.774 305.767,309.191 304.593,309.198 304.181 C 309.204 303.768,309.520 302.847,309.899 302.134 C 310.278 301.421,310.709 300.185,310.856 299.387 C 311.003 298.590,311.344 297.585,311.613 297.155 C 311.882 296.724,312.209 295.702,312.338 294.884 C 312.468 294.065,312.894 292.140,313.284 290.605 C 313.675 289.070,314.186 286.642,314.420 285.209 C 314.655 283.777,315.024 281.851,315.241 280.930 C 315.792 278.592,316.100 158.283,315.565 154.419 C 314.877 149.453,311.590 144.486,307.668 142.485 C 306.906 142.096,306.185 141.620,306.065 141.426 C 305.945 141.232,304.971 140.890,303.900 140.666 C 302.008 140.271,300.343 139.552,301.291 139.541 C 301.540 139.537,301.651 139.292,301.537 138.994 C 301.316 138.419,276.542 138.093,275.977 138.659 M114.977 299.535 C 114.977 299.740,115.154 299.907,115.371 299.907 C 115.588 299.907,115.661 300.074,115.535 300.279 C 115.408 300.484,115.464 300.651,115.659 300.651 C 115.961 300.651,116.465 299.817,116.465 299.318 C 116.465 299.233,116.130 299.163,115.721 299.163 C 115.312 299.163,114.977 299.330,114.977 299.535 M116.739 303.850 C 116.453 304.136,116.823 305.116,117.216 305.116 C 117.534 305.116,117.490 304.157,117.158 303.825 C 117.050 303.716,116.861 303.728,116.739 303.850 M120.282 311.383 C 119.783 311.691,119.851 312.702,120.380 312.837 C 120.580 312.888,120.744 312.721,120.744 312.465 C 120.744 312.209,120.888 311.895,121.063 311.767 C 121.524 311.431,120.790 311.069,120.282 311.383 M121.736 314.745 C 121.332 315.001,121.342 315.098,121.793 315.271 C 122.368 315.492,122.791 315.262,122.791 314.729 C 122.791 314.335,122.373 314.341,121.736 314.745 " stroke="none" fill="#747ce5" fill-rule="evenodd"></path></g></svg>