<svg fill="none" height="32" viewBox="0 0 32 32" width="32" xmlns="http://www.w3.org/2000/svg" xmlns:xlink="http://www.w3.org/1999/xlink"><linearGradient id="a" gradientUnits="userSpaceOnUse" x1="16" x2="16" y1="28.188" y2="3.81201"><stop offset="0" stop-color="#0052cc"/><stop offset="1" stop-color="#2684ff"/></linearGradient><path clip-rule="evenodd" d="m25.288 3.81201h-18.57599c-.7688.00106-1.50581.30693-2.04944.85056s-.8495 1.28064-.85056 2.04944v18.57599c.00106.7688.30693 1.5058.85056 2.0495.54363.5436 1.28064.8495 2.04944.8505h18.57599c.7688-.001 1.5058-.3069 2.0495-.8505.5436-.5437.8495-1.2807.8505-2.0495v-18.57599c-.001-.7688-.3069-1.50581-.8505-2.04944-.5437-.54363-1.2807-.8495-2.0495-.85056zm-10.976 17.55599c0 .2557-.1016.5009-.2823.6817-.1808.1807-.426.2823-.6817.2823h-4.07199c-.25567 0-.50086-.1016-.68165-.2823-.18078-.1808-.28235-.426-.28235-.6817v-12.09199c0-.25567.10157-.50086.28235-.68165.18079-.18078.42598-.28235.68165-.28235h4.07199c.2557 0 .5009.10157.6817.28235.1807.18079.2823.42598.2823.68165zm9.376-5.552c.0027.1283-.0203.2558-.0675.3751-.0473.1192-.1179.2279-.2077.3195-.0898.0917-.1969.1645-.3152.2142s-.2453.0752-.3736.0752h-4.072c-.2557 0-.5009-.1016-.6816-.2823-.1808-.1808-.2824-.426-.2824-.6817v-6.55999c0-.25567.1016-.50086.2824-.68165.1807-.18078.4259-.28235.6816-.28235h4.072c.2557 0 .5009.10157.6817.28235.1807.18079.2823.42598.2823.68165z" fill="url(#a)" fill-rule="evenodd"/></svg>