<svg id="svg" version="1.1" xmlns="http://www.w3.org/2000/svg" xmlns:xlink="http://www.w3.org/1999/xlink" width="400" height="400" viewBox="0, 0, 400,400"><g id="svgg"><path id="path0" d="M239.206 76.320 C 232.329 78.552,230.664 85.048,233.735 97.656 C 236.730 109.947,236.890 111.063,236.903 119.727 C 236.916 128.561,236.274 132.650,233.728 139.966 C 232.416 143.734,230.170 148.666,229.896 148.379 C 229.824 148.304,226.414 136.605,222.320 122.383 C 217.761 106.549,214.410 95.602,213.676 94.148 C 208.087 83.077,195.558 86.962,198.629 98.814 C 199.426 101.889,199.921 102.915,209.929 122.250 C 214.762 131.587,218.653 139.290,218.575 139.368 C 217.215 140.728,210.551 132.862,204.266 122.478 C 198.357 112.716,189.985 108.100,183.124 110.824 C 180.859 111.723,180.633 115.326,182.484 121.026 C 184.400 126.926,188.632 131.477,199.416 139.238 C 222.046 155.523,228.827 174.258,224.784 209.328 C 221.950 233.906,215.584 253.418,207.576 262.066 C 196.589 273.934,176.481 266.716,179.212 251.885 C 180.262 246.185,183.758 241.232,192.245 233.417 C 203.945 222.644,208.495 213.155,213.260 189.587 C 215.099 180.494,213.356 175.195,208.526 175.195 C 203.484 175.195,201.896 178.320,201.714 188.593 C 201.495 200.994,200.638 205.845,197.599 211.886 C 192.079 222.862,181.294 231.721,177.296 228.565 C 174.516 226.370,174.369 222.978,176.569 211.764 C 185.772 164.856,179.813 131.866,158.209 110.121 C 147.492 99.333,135.955 99.687,135.940 110.805 C 135.931 117.375,139.468 121.455,150.663 127.791 C 159.913 133.026,164.110 137.951,164.214 143.693 C 164.283 147.483,163.971 148.048,161.809 148.042 C 156.227 148.028,150.958 145.044,142.188 136.929 C 131.865 127.378,126.126 124.693,118.652 125.916 L 116.797 126.220 116.797 128.478 C 116.797 137.077,122.829 143.162,138.170 150.038 C 154.787 157.486,163.213 166.179,168.169 180.989 C 172.283 193.285,171.622 203.021,165.630 218.359 C 158.424 236.806,159.231 245.380,169.932 264.080 C 171.001 265.947,171.875 267.566,171.875 267.677 C 171.875 267.788,170.688 267.801,169.238 267.706 C 143.775 266.034,130.235 255.737,130.292 238.086 C 130.315 231.210,130.554 230.130,134.973 216.992 C 141.512 197.548,141.822 187.171,135.977 183.301 C 130.623 179.755,127.678 184.254,129.731 192.840 C 131.553 200.460,128.958 210.124,123.885 214.613 C 122.723 215.642,122.940 216.915,120.928 197.266 C 118.938 177.836,118.769 176.754,117.345 174.319 C 114.996 170.301,110.617 170.785,109.415 175.195 C 109.144 176.187,108.981 182.111,108.969 191.406 L 108.949 206.055 107.111 204.025 C 106.100 202.908,103.964 199.619,102.363 196.714 C 96.903 186.809,92.459 183.791,86.809 186.151 C 80.306 188.869,81.744 193.973,90.820 200.388 C 105.959 211.087,113.405 223.212,118.164 244.916 C 123.836 270.780,129.834 276.307,153.766 277.724 C 180.949 279.334,186.508 283.254,190.814 303.846 C 193.925 318.720,197.581 323.838,205.078 323.812 C 214.867 323.777,223.662 314.457,236.791 290.204 C 250.112 265.597,265.846 254.720,290.430 253.124 C 305.353 252.155,310.433 249.089,308.593 242.162 C 306.454 234.110,295.598 233.007,285.547 239.821 C 284.580 240.476,283.676 241.013,283.537 241.014 C 283.399 241.015,285.488 238.071,288.180 234.473 C 303.807 213.578,315.878 192.340,317.011 183.745 C 317.902 176.979,311.882 171.304,306.437 173.778 C 303.281 175.211,301.564 177.786,294.836 191.177 L 288.538 203.711 288.032 200.195 C 286.137 187.005,280.644 173.310,275.979 170.144 C 272.299 167.647,267.125 169.836,265.422 174.611 C 263.495 180.014,265.280 186.392,271.967 198.002 C 281.333 214.264,281.313 221.524,271.875 231.225 C 268.361 234.837,219.900 279.014,219.686 278.800 C 219.604 278.718,223.412 268.030,228.149 255.048 C 248.671 198.804,258.984 168.794,258.984 165.323 C 258.984 161.489,254.251 158.739,251.448 160.944 C 249.739 162.288,249.029 163.886,244.513 176.563 C 242.102 183.330,239.967 189.301,239.769 189.831 C 239.303 191.075,238.936 190.538,237.912 187.109 C 234.811 176.731,235.059 165.019,238.677 150.977 C 240.323 144.588,241.019 142.487,246.696 126.758 C 255.866 101.353,257.364 92.195,253.689 84.006 C 251.189 78.436,244.167 74.709,239.206 76.320 " stroke="none" fill="#42a3ef" fill-rule="evenodd"></path><path id="path1" d="M186.719 18.792 C 76.869 27.463,0.158 129.234,22.242 236.998 C 41.131 329.168,129.415 392.151,222.801 380.080 C 331.847 365.983,403.385 259.875,375.549 153.516 C 353.589 69.605,272.840 11.994,186.719 18.792 M247.401 77.135 C 258.879 82.943,258.577 94.836,246.084 129.102 C 235.437 158.300,233.577 172.374,238.331 187.764 C 239.332 191.005,238.840 191.922,244.152 176.928 C 246.544 170.174,248.941 163.890,249.477 162.964 C 253.082 156.736,260.476 160.559,258.801 167.784 C 257.316 174.186,245.675 207.589,228.937 253.474 C 223.969 267.094,219.952 278.282,220.011 278.337 C 220.230 278.542,269.078 233.869,272.102 230.698 C 281.154 221.205,281.080 214.225,271.756 198.047 C 262.798 182.503,262.109 172.937,269.699 169.489 C 276.912 166.213,284.905 178.777,287.866 198.047 C 288.114 199.658,288.413 201.416,288.531 201.953 C 288.703 202.736,289.974 200.487,294.935 190.625 C 301.403 177.767,302.529 175.999,305.424 174.163 C 310.793 170.758,317.188 175.263,317.188 182.449 C 317.188 190.592,303.650 214.770,286.910 236.523 C 283.629 240.787,283.611 240.854,286.167 239.219 C 297.329 232.079,309.511 234.847,308.909 244.387 C 308.543 250.194,304.259 252.444,292.224 253.150 C 265.234 254.734,250.888 264.809,235.412 293.047 C 222.276 317.015,211.891 326.548,202.088 323.637 C 196.042 321.841,193.364 317.137,190.436 303.170 C 186.382 283.833,180.418 279.511,155.859 278.113 C 129.915 276.637,123.675 271.304,118.167 245.898 C 113.237 223.162,106.072 211.411,90.372 200.316 C 85.871 197.136,83.827 195.195,83.177 193.486 C 81.052 187.897,87.839 183.274,93.945 186.152 C 97.047 187.613,99.205 190.418,104.042 199.273 C 104.821 200.699,106.245 202.720,107.206 203.765 L 108.953 205.664 108.969 190.515 C 108.985 174.267,109.074 173.459,110.983 172.121 C 112.568 171.011,114.895 171.289,116.286 172.754 C 118.938 175.549,119.056 176.134,121.087 196.484 C 121.956 205.186,122.770 212.920,122.897 213.672 L 123.128 215.039 124.772 213.180 C 129.515 207.816,131.206 199.846,129.294 191.870 C 127.454 184.193,130.130 180.166,135.408 182.670 C 142.009 185.803,141.932 196.964,135.171 217.072 C 130.465 231.068,129.487 236.638,130.624 242.969 C 132.850 255.366,143.782 263.920,160.742 266.534 C 165.220 267.225,171.484 267.768,171.484 267.467 C 171.484 267.354,170.851 266.147,170.077 264.784 C 158.967 245.214,158.108 237.062,165.229 218.792 C 171.471 202.777,172.148 193.922,168.086 181.445 C 163.222 166.507,154.886 157.853,138.021 150.231 C 124.515 144.128,119.440 139.817,117.191 132.537 C 115.393 126.715,116.238 125.384,121.725 125.395 C 128.029 125.408,133.281 128.391,143.359 137.684 C 150.554 144.318,154.826 146.869,160.100 147.679 C 163.729 148.236,163.869 148.107,163.861 144.218 C 163.848 137.877,160.105 133.350,150.303 127.816 C 139.016 121.444,135.860 117.727,135.810 110.742 C 135.725 99.127,148.290 99.104,159.251 110.700 C 179.683 132.316,185.708 164.411,177.516 208.008 C 174.650 223.260,174.805 222.103,175.308 224.501 C 176.681 231.046,181.445 230.543,189.080 223.047 C 198.411 213.886,201.559 205.236,201.561 188.747 C 201.563 179.695,202.965 176.119,206.944 175.020 C 213.097 173.321,215.586 180.044,213.083 191.602 C 208.113 214.553,204.891 221.036,192.211 233.594 C 181.445 244.256,179.312 247.715,179.301 254.520 C 179.279 268.653,199.456 272.725,208.815 260.477 C 215.977 251.104,221.215 234.664,224.182 212.242 C 228.993 175.885,222.362 155.966,200.152 140.060 C 185.386 129.485,181.250 123.911,181.250 114.587 L 181.250 111.288 182.715 110.627 C 189.881 107.393,198.636 112.547,205.469 124.023 C 210.333 132.193,214.172 136.917,217.233 138.500 C 218.419 139.114,218.364 138.963,215.134 132.749 C 198.199 100.169,198.719 101.251,198.069 97.217 C 196.226 85.770,209.396 83.771,214.256 94.760 C 215.069 96.599,219.966 113.200,228.159 141.895 C 230.067 148.574,229.985 148.504,231.607 144.876 C 238.080 130.399,238.559 117.339,233.353 97.251 C 229.238 81.370,236.165 71.450,247.401 77.135 " stroke="none" fill="#fbfbfb" fill-rule="evenodd"></path><path id="path2" d="M143.266 102.229 C 143.752 102.323,144.455 102.319,144.829 102.222 C 145.202 102.124,144.805 102.047,143.945 102.052 C 143.086 102.056,142.780 102.136,143.266 102.229 M158.008 109.766 C 159.283 111.055,160.415 112.109,160.522 112.109 C 160.630 112.109,159.674 111.055,158.398 109.766 C 157.123 108.477,155.991 107.422,155.884 107.422 C 155.776 107.422,156.732 108.477,158.008 109.766 M236.809 124.609 C 236.809 125.361,236.890 125.669,236.988 125.293 C 237.086 124.917,237.086 124.302,236.988 123.926 C 236.890 123.550,236.809 123.857,236.809 124.609 M116.513 128.125 C 116.513 129.092,116.589 129.487,116.682 129.004 C 116.775 128.521,116.775 127.729,116.682 127.246 C 116.589 126.763,116.513 127.158,116.513 128.125 M142.578 137.232 C 142.578 137.299,143.149 137.870,143.848 138.501 L 145.117 139.648 143.970 138.379 C 142.900 137.196,142.578 136.930,142.578 137.232 M164.153 144.141 C 164.153 144.893,164.234 145.200,164.332 144.824 C 164.430 144.448,164.430 143.833,164.332 143.457 C 164.234 143.081,164.153 143.389,164.153 144.141 M209.570 147.656 C 210.846 148.945,211.977 150.000,212.085 150.000 C 212.192 150.000,211.237 148.945,209.961 147.656 C 208.685 146.367,207.554 145.313,207.446 145.313 C 207.339 145.313,208.295 146.367,209.570 147.656 M181.005 173.242 C 181.006 175.605,181.071 176.522,181.148 175.279 C 181.226 174.036,181.226 172.102,181.147 170.982 C 181.068 169.862,181.005 170.879,181.005 173.242 M235.672 171.484 C 235.672 172.881,235.743 173.452,235.829 172.754 C 235.916 172.056,235.916 170.913,235.829 170.215 C 235.743 169.517,235.672 170.088,235.672 171.484 M264.544 180.078 C 264.544 180.830,264.624 181.138,264.722 180.762 C 264.821 180.386,264.821 179.771,264.722 179.395 C 264.624 179.019,264.544 179.326,264.544 180.078 M180.559 183.594 C 180.559 184.346,180.640 184.653,180.738 184.277 C 180.836 183.901,180.836 183.286,180.738 182.910 C 180.640 182.534,180.559 182.842,180.559 183.594 M89.551 185.426 C 89.927 185.524,90.542 185.524,90.918 185.426 C 91.294 185.327,90.986 185.247,90.234 185.247 C 89.482 185.247,89.175 185.327,89.551 185.426 M128.627 187.305 C 128.630 188.379,128.706 188.772,128.796 188.178 C 128.886 187.584,128.883 186.706,128.791 186.225 C 128.698 185.745,128.624 186.230,128.627 187.305 M225.893 191.602 C 225.896 192.676,225.972 193.069,226.062 192.475 C 226.151 191.881,226.149 191.002,226.056 190.522 C 225.964 190.042,225.890 190.527,225.893 191.602 M99.414 207.813 C 100.906 209.316,102.215 210.547,102.323 210.547 C 102.430 210.547,101.297 209.316,99.805 207.813 C 98.312 206.309,97.003 205.078,96.896 205.078 C 96.789 205.078,97.922 206.309,99.414 207.813 M124.230 213.855 C 123.732 214.386,123.174 214.727,122.990 214.613 C 122.806 214.500,122.656 214.593,122.656 214.821 C 122.656 215.533,123.250 215.277,124.414 214.063 C 125.032 213.418,125.447 212.891,125.336 212.891 C 125.226 212.891,124.728 213.325,124.230 213.855 M189.630 222.754 L 188.086 224.414 189.746 222.870 C 191.290 221.434,191.586 221.094,191.290 221.094 C 191.226 221.094,190.479 221.841,189.630 222.754 M271.094 231.836 C 270.145 232.803,269.456 233.594,269.564 233.594 C 269.671 233.594,270.536 232.803,271.484 231.836 C 272.433 230.869,273.122 230.078,273.014 230.078 C 272.907 230.078,272.043 230.869,271.094 231.836 M160.678 237.109 C 160.678 238.721,160.747 239.380,160.831 238.574 C 160.916 237.769,160.916 236.450,160.831 235.645 C 160.747 234.839,160.678 235.498,160.678 237.109 M293.457 253.004 C 293.833 253.102,294.448 253.102,294.824 253.004 C 295.200 252.905,294.893 252.825,294.141 252.825 C 293.389 252.825,293.081 252.905,293.457 253.004 M154.594 278.011 C 155.080 278.104,155.783 278.101,156.157 278.003 C 156.530 277.905,156.133 277.829,155.273 277.833 C 154.414 277.837,154.108 277.917,154.594 278.011 M204.395 324.097 C 204.771 324.196,205.386 324.196,205.762 324.097 C 206.138 323.999,205.830 323.919,205.078 323.919 C 204.326 323.919,204.019 323.999,204.395 324.097 " stroke="none" fill="#a7d5f9" fill-rule="evenodd"></path><path id="path3" d="M187.109 16.262 C 73.472 24.233,-4.862 127.954,17.785 240.462 C 30.050 301.390,72.641 352.114,130.859 375.126 C 174.108 392.221,225.892 392.221,269.141 375.126 C 403.470 322.029,427.758 139.780,312.109 52.702 C 277.383 26.555,231.415 13.154,187.109 16.262 M213.517 18.757 C 308.694 26.262,381.637 104.900,381.637 200.000 C 381.637 310.694,283.217 395.629,173.460 379.655 C 76.066 365.480,7.591 275.344,19.767 177.344 C 31.654 81.670,117.744 11.204,213.517 18.757 " stroke="none" fill="#adadad" fill-rule="evenodd"></path><path id="path4" d="M135.645 110.742 C 135.650 111.602,135.730 111.907,135.823 111.421 C 135.917 110.935,135.913 110.232,135.815 109.859 C 135.717 109.485,135.641 109.883,135.645 110.742 M155.843 161.426 C 156.801 162.446,157.636 163.281,157.699 163.281 C 157.992 163.281,157.682 162.931,155.957 161.312 L 154.102 159.570 155.843 161.426 M180.950 178.516 C 180.950 179.268,181.030 179.575,181.129 179.199 C 181.227 178.823,181.227 178.208,181.129 177.832 C 181.030 177.456,180.950 177.764,180.950 178.516 M18.458 192.383 C 18.462 193.242,18.542 193.548,18.636 193.062 C 18.729 192.576,18.726 191.873,18.628 191.499 C 18.530 191.126,18.454 191.523,18.458 192.383 M381.349 192.383 C 381.353 193.242,381.433 193.548,381.526 193.062 C 381.620 192.576,381.616 191.873,381.518 191.499 C 381.421 191.126,381.344 191.523,381.349 192.383 M130.185 198.438 C 130.185 199.404,130.261 199.800,130.354 199.316 C 130.447 198.833,130.447 198.042,130.354 197.559 C 130.261 197.075,130.185 197.471,130.185 198.438 M18.458 207.617 C 18.462 208.477,18.542 208.782,18.636 208.296 C 18.729 207.810,18.726 207.107,18.628 206.734 C 18.530 206.360,18.454 206.758,18.458 207.617 M381.349 207.617 C 381.353 208.477,381.433 208.782,381.526 208.296 C 381.620 207.810,381.616 207.107,381.518 206.734 C 381.421 206.360,381.344 206.758,381.349 207.617 M178.997 254.688 C 178.997 255.439,179.077 255.747,179.176 255.371 C 179.274 254.995,179.274 254.380,179.176 254.004 C 179.077 253.628,178.997 253.936,178.997 254.688 M137.500 256.445 C 138.229 257.197,138.913 257.813,139.020 257.813 C 139.128 257.813,138.619 257.197,137.891 256.445 C 137.162 255.693,136.478 255.078,136.370 255.078 C 136.263 255.078,136.771 255.693,137.500 256.445 M66.797 323.560 C 66.797 323.627,67.368 324.198,68.066 324.829 L 69.336 325.977 68.189 324.707 C 67.119 323.524,66.797 323.258,66.797 323.560 M331.811 324.707 L 330.664 325.977 331.934 324.829 C 332.632 324.198,333.203 323.627,333.203 323.560 C 333.203 323.258,332.881 323.524,331.811 324.707 M74.219 330.982 C 74.219 331.049,74.790 331.620,75.488 332.251 L 76.758 333.398 75.611 332.129 C 74.541 330.946,74.219 330.680,74.219 330.982 M324.389 332.129 L 323.242 333.398 324.512 332.251 C 325.210 331.620,325.781 331.049,325.781 330.982 C 325.781 330.680,325.459 330.946,324.389 332.129 M192.676 381.519 C 193.052 381.618,193.667 381.618,194.043 381.519 C 194.419 381.421,194.111 381.341,193.359 381.341 C 192.607 381.341,192.300 381.421,192.676 381.519 M205.957 381.519 C 206.333 381.618,206.948 381.618,207.324 381.519 C 207.700 381.421,207.393 381.341,206.641 381.341 C 205.889 381.341,205.581 381.421,205.957 381.519 " stroke="none" fill="#cde3f4" fill-rule="evenodd"></path></g></svg>