<svg xmlns="http://www.w3.org/2000/svg" xmlns:xlink="http://www.w3.org/1999/xlink" version="1.1" width="1000" height="1000" viewBox="0 0 1000 1000" xml:space="preserve">
<desc>Created with Fabric.js 3.5.0</desc>
<defs>
</defs>
<rect x="0" y="0" width="100%" height="100%" fill="#ffffff"/>
<g transform="matrix(1.2582 0 0 0.9653 278.5727 202.6466)" id="570439" clip-path="url(#CLIPPATH_22)">
<clipPath id="CLIPPATH_22">
	<rect transform="matrix(1 0 0 1 -0.0001 0.0002)" id="clip0_302_86" x="-78.5" y="-78.5" rx="0" ry="0" width="157" height="157"/>
</clipPath>
<path style="stroke: none; stroke-width: 1; stroke-dasharray: none; stroke-linecap: butt; stroke-dashoffset: 0; stroke-linejoin: miter; stroke-miterlimit: 4; is-custom-font: none; font-file-url: none; fill: rgb(1,1,1); fill-rule: nonzero; opacity: 1;" vector-effect="non-scaling-stroke" transform=" translate(-78.5001, -78.4998)" d="M 78.5257 37.6058 C 35.1715 37.5919 0.0145857 72.7263 0.000957255 116.08 C 0.00000643565 116.126 0.00000643565 116.171 0.000957255 116.217 C 0.0386731 118.009 1.52195 119.431 3.31393 119.393 H 153.755 C 155.558 119.356 157.001 117.884 157 116.08 C 156.986 72.7459 121.86 37.6198 78.5257 37.6058 Z" stroke-linecap="round"/>
</g>
<g transform="matrix(1.2582 0 0 0.9653 709.5581 203.9133)" id="597807" clip-path="url(#CLIPPATH_23)">
<clipPath id="CLIPPATH_23">
	<rect transform="matrix(1 0 0 1 -0.0001 0.0002)" id="clip0_302_86" x="-78.5" y="-78.5" rx="0" ry="0" width="157" height="157"/>
</clipPath>
<path style="stroke: none; stroke-width: 1; stroke-dasharray: none; stroke-linecap: butt; stroke-dashoffset: 0; stroke-linejoin: miter; stroke-miterlimit: 4; is-custom-font: none; font-file-url: none; fill: rgb(1,1,1); fill-rule: nonzero; opacity: 1;" vector-effect="non-scaling-stroke" transform=" translate(-78.5001, -78.4998)" d="M 78.5257 37.6058 C 35.1715 37.5919 0.0145857 72.7263 0.000957255 116.08 C 0.00000643565 116.126 0.00000643565 116.171 0.000957255 116.217 C 0.0386731 118.009 1.52195 119.431 3.31393 119.393 H 153.755 C 155.558 119.356 157.001 117.884 157 116.08 C 156.986 72.7459 121.86 37.6198 78.5257 37.6058 Z" stroke-linecap="round"/>
</g>
<g transform="matrix(-6.3105 0 0 -7.0215 495.8722 549.6914)" id="879707" clip-path="url(#CLIPPATH_24)">
<clipPath id="CLIPPATH_24">
	<rect transform="matrix(1 0 0 1 -0.0001 0.0002)" id="clip0_302_86" x="-78.5" y="-78.5" rx="0" ry="0" width="157" height="157"/>
</clipPath>
<path style="stroke: none; stroke-width: 1; stroke-dasharray: none; stroke-linecap: butt; stroke-dashoffset: 0; stroke-linejoin: miter; stroke-miterlimit: 4; is-custom-font: none; font-file-url: none; fill: rgb(17,116,66); fill-rule: nonzero; opacity: 1;" vector-effect="non-scaling-stroke" transform=" translate(-78.5001, -78.4998)" d="M 78.5257 37.6058 C 35.1715 37.5919 0.0145857 72.7263 0.000957255 116.08 C 0.00000643565 116.126 0.00000643565 116.171 0.000957255 116.217 C 0.0386731 118.009 1.52195 119.431 3.31393 119.393 H 153.755 C 155.558 119.356 157.001 117.884 157 116.08 C 156.986 72.7459 121.86 37.6198 78.5257 37.6058 Z" stroke-linecap="round"/>
</g>
<g transform="matrix(-6.064 0 0 -6.7597 493.9563 539.4895)" id="863589" clip-path="url(#CLIPPATH_25)">
<clipPath id="CLIPPATH_25">
	<rect transform="matrix(1 0 0 1 -0.0001 0.0002)" id="clip0_302_86" x="-78.5" y="-78.5" rx="0" ry="0" width="157" height="157"/>
</clipPath>
<path style="stroke: none; stroke-width: 0; stroke-dasharray: none; stroke-linecap: butt; stroke-dashoffset: 0; stroke-linejoin: miter; stroke-miterlimit: 4; is-custom-font: none; font-file-url: none; fill: rgb(116,183,85); fill-rule: nonzero; opacity: 1;" vector-effect="non-scaling-stroke" transform=" translate(-78.5001, -78.4998)" d="M 78.5257 37.6058 C 35.1715 37.5919 0.0145857 72.7263 0.000957255 116.08 C 0.00000643565 116.126 0.00000643565 116.171 0.000957255 116.217 C 0.0386731 118.009 1.52195 119.431 3.31393 119.393 H 153.755 C 155.558 119.356 157.001 117.884 157 116.08 C 156.986 72.7459 121.86 37.6198 78.5257 37.6058 Z" stroke-linecap="round"/>
</g>
<g transform="matrix(-5.0992 0 0 -5.9539 501.8218 476.4914)" id="255335" clip-path="url(#CLIPPATH_26)">
<clipPath id="CLIPPATH_26">
	<rect transform="matrix(1 0 0 1 -0.0001 0.0002)" id="clip0_302_86" x="-78.5" y="-78.5" rx="0" ry="0" width="157" height="157"/>
</clipPath>
<path style="stroke: none; stroke-width: 1; stroke-dasharray: none; stroke-linecap: butt; stroke-dashoffset: 0; stroke-linejoin: miter; stroke-miterlimit: 4; is-custom-font: none; font-file-url: none; fill: rgb(174,57,57); fill-rule: nonzero; opacity: 1;" vector-effect="non-scaling-stroke" transform=" translate(-78.5001, -78.4998)" d="M 78.5257 37.6058 C 35.1715 37.5919 0.0145857 72.7263 0.000957255 116.08 C 0.00000643565 116.126 0.00000643565 116.171 0.000957255 116.217 C 0.0386731 118.009 1.52195 119.431 3.31393 119.393 H 153.755 C 155.558 119.356 157.001 117.884 157 116.08 C 156.986 72.7459 121.86 37.6198 78.5257 37.6058 Z" stroke-linecap="round"/>
</g>
<g transform="matrix(1.7105 0 0 1.2474 709.5582 276.0389)" id="817590">
<path style="stroke: none; stroke-width: 1; stroke-dasharray: none; stroke-linecap: butt; stroke-dashoffset: 0; stroke-linejoin: miter; stroke-miterlimit: 4; is-custom-font: none; font-file-url: none; fill: rgb(65,45,36); fill-rule: nonzero; opacity: 1;" vector-effect="non-scaling-stroke" transform=" translate(-78.4998, -78.5)" d="M 78.5 0 C 52.9419 0 32.1166 35.2271 32.1166 78.5 C 32.1166 121.773 52.9419 157 78.5 157 C 104.058 157 124.883 121.773 124.883 78.5 C 124.883 35.2271 104.058 0 78.5 0 Z" stroke-linecap="round"/>
</g>
<g transform="matrix(2.8027 0 0 2.8693 495.6255 492.8053)" id="Layer_1">
<path style="stroke: none; stroke-width: 1; stroke-dasharray: none; stroke-linecap: butt; stroke-dashoffset: 0; stroke-linejoin: miter; stroke-miterlimit: 4; is-custom-font: none; font-file-url: none; fill: rgb(219,98,98); fill-rule: nonzero; opacity: 1;" transform=" translate(-178.5933, -110.8033)" d="M 327.022949 30.4967 C 326.382721 37.119083 325.780426 43.354355 325.038788 49.573017 C 320.047729 91.424637 303.323425 127.658623 272.454987 156.673889 C 247.671799 179.969223 218.125702 193.272324 183.946365 194.63884 C 148.433807 196.058609 117.029221 184.532333 90.130096 161.505829 C 55.437534 131.807877 37.140896 93.408646 31.9207 48.42458 C 31.269903 42.816475 30.967815 37.167908 30.227293 31.214512 C 29.821825 27.918978 31.382029 26.846027 34.18428 26.981102 C 36.133114 27.075045 38.090977 26.981604 40.672585 27.32383 C 42.531223 37.365559 43.222992 47.160423 45.087791 56.726624 C 52.513073 94.817413 70.714905 126.654243 101.419106 150.809967 C 115.821945 162.141052 131.847565 170.388092 150.371323 174.121033 C 168.767456 179.380981 186.856857 178.803421 205.365753 174.800659 C 233.614014 167.941513 256.813049 153.586151 275.691101 131.962952 C 297.631927 106.831558 309.940552 77.570709 314.02478 44.654686 C 314.757538 38.749207 315.385895 32.830769 316.062439 26.918316 C 318.524048 26.949299 321.060272 26.635113 323.418304 27.145021 C 324.761322 27.43545 325.813324 29.071693 327.022949 30.4967 z" stroke-linecap="round"/>
</g>
<g transform="matrix(2.8027 0 0 2.8693 686.4503 255.5451)" id="Layer_1">
<path style="stroke: none; stroke-width: 1; stroke-dasharray: none; stroke-linecap: butt; stroke-dashoffset: 0; stroke-linejoin: miter; stroke-miterlimit: 4; is-custom-font: none; font-file-url: none; fill: rgb(249,250,249); fill-rule: nonzero; opacity: 1;" transform=" translate(-246.682, -28.1139)" d="M 254.984009 36.850723 C 248.254822 44.084332 239.804535 42.28006 236.762329 33.32592 C 234.775665 27.478567 236.284622 20.776299 240.424667 17.374107 C 243.845352 14.563046 247.598526 14.098613 251.493942 16.260239 C 256.060364 18.794218 258.40564 25.087147 257.11969 31.516541 C 256.773651 33.246681 255.837448 34.858784 254.984009 36.850723 z" stroke-linecap="round"/>
</g>
<g transform="matrix(2.8027 0 0 2.8693 737.4048 312.5712)" id="Layer_1">
<path style="stroke: none; stroke-width: 1; stroke-dasharray: none; stroke-linecap: butt; stroke-dashoffset: 0; stroke-linejoin: miter; stroke-miterlimit: 4; is-custom-font: none; font-file-url: none; fill: rgb(246,246,245); fill-rule: nonzero; opacity: 1;" transform=" translate(-264.8628, -47.9887)" d="M 269.63269 53.667519 C 264.920654 56.739155 262.12146 56.323383 259.881714 52.543377 C 257.648102 48.773716 258.800964 43.0536 262.197937 41.051247 C 265.585968 39.054161 270.256317 41.036526 270.906403 45.294819 C 271.300598 47.87722 270.268585 50.677349 269.63269 53.667519 z" stroke-linecap="round"/>
</g>
<g transform="matrix(2.8027 0 0 0.0001 197.1762 797.229)" id="Layer_1">
<path style="stroke: none; stroke-width: 1; stroke-dasharray: none; stroke-linecap: butt; stroke-dashoffset: 0; stroke-linejoin: miter; stroke-miterlimit: 4; is-custom-font: none; font-file-url: none; fill: rgb(65,45,36); fill-rule: nonzero; opacity: 1;" transform=" translate(-102.0265, -37.8876)" d="M 76.980507 22.964666 C 80.529724 13.004894 87.267128 6.073897 97.697067 4.25266 C 108.651688 2.339806 117.527779 6.712742 123.7117 16.091263 C 125.073769 18.156981 126.226631 20.36064 127.682892 23.158772 C 128.617493 27.883698 129.345047 31.950632 130.039612 36.442772 C 130.042618 38.574478 130.078598 40.280983 130.005157 42.364899 C 128.940445 46.49942 127.985161 50.256531 126.775223 54.236706 C 125.709274 55.898499 124.926308 57.354084 124.082245 58.773327 C 116.360924 71.75631 101.471558 75.779877 89.097816 68.033661 C 82.690025 64.022255 79.119186 57.641541 75.980774 50.681396 C 75.908241 49.937012 75.858299 49.51247 75.819862 48.794621 C 75.565826 48.000832 75.300293 47.500351 75.013153 46.604221 C 74.651527 44.137684 74.311501 42.066795 74.001892 39.597286 C 74.019524 38.133503 74.006744 37.068336 74.049454 35.607105 C 75.063469 31.128914 76.021988 27.046791 76.980507 22.964666 M 103.524979 36.742107 C 103.923409 35.311054 104.556953 33.899673 104.678665 32.445461 C 105.148834 26.827873 103.755768 21.823326 98.809746 18.563606 C 95.44751 16.347694 91.871681 16.662123 88.541374 18.913757 C 84.391144 21.719749 82.101425 28.143759 83.280098 33.515793 C 83.350494 33.836601 83.514542 34.136086 83.595146 34.455551 C 84.837852 39.380726 87.712914 42.91309 92.855103 43.622871 C 97.689461 44.290157 101.017433 41.644615 103.524979 36.742107 M 118.295715 52.729595 C 117.328026 49.637497 116.793327 46.281559 115.157318 43.596699 C 114.586266 42.659542 110.148369 42.556904 109.476089 43.499458 C 107.728683 45.949371 106.135292 49.255505 106.328369 52.094307 C 106.469238 54.165657 109.200783 56.943363 111.397835 57.78318 C 114.604485 59.008919 116.881477 56.551098 118.295715 52.729595 z" stroke-linecap="round"/>
</g>
<g transform="matrix(2.8027 0 0 2.8693 495.3729 477.4131)" id="Layer_1">
<path style="stroke: none; stroke-width: 1; stroke-dasharray: none; stroke-linecap: butt; stroke-dashoffset: 0; stroke-linejoin: miter; stroke-miterlimit: 4; is-custom-font: none; font-file-url: none; fill: rgb(255,255,255); fill-rule: nonzero; opacity: 1;" transform=" translate(-178.5042, -105.4395)" d="M 246.990143 93.98085 C 246.689728 96.046463 246.389313 98.112083 246.048462 100.967072 C 245.582367 104.121338 245.156738 106.486221 244.443527 109.097122 C 243.076401 112.877213 241.996872 116.411278 240.456711 119.971878 C 198.677734 119.988922 157.35936 119.979431 115.907616 119.650085 C 114.8825 117.533997 113.990768 115.737762 113.065491 113.617508 C 112.977211 112.865608 112.922455 112.437737 112.931152 111.707504 C 112.747673 110.876404 112.500732 110.347664 112.284012 109.411499 C 111.551308 105.965904 110.788376 102.927727 110.019394 99.456902 C 110.01519 97.009521 110.017029 94.994797 110.159004 92.591652 C 112.097038 91.803551 113.893906 91.06012 115.692993 91.054726 C 154.796143 90.937599 193.899536 90.902679 233.46283 90.916405 C 237.18959 90.98822 240.489502 90.733315 243.706085 91.139023 C 244.90123 91.289764 245.901169 92.988197 246.990143 93.98085 z" stroke-linecap="round"/>
</g>
<g transform="matrix(2.8027 0 0 2.8693 166.0611 290.6973)" id="Layer_1">
<path style="stroke: none; stroke-width: 1; stroke-dasharray: none; stroke-linecap: butt; stroke-dashoffset: 0; stroke-linejoin: miter; stroke-miterlimit: 4; is-custom-font: none; font-file-url: none; fill: rgb(217,154,143); fill-rule: nonzero; opacity: 1;" transform=" translate(-61.0055, -40.3652)" d="M 57.1064 34.428982 C 60.536903 32.634071 63.427414 32.812576 65.516205 36.048138 C 67.542053 39.186207 67.371246 42.350941 65.055046 45.234634 C 62.984367 47.812649 60.402786 48.135517 57.298058 46.172897 C 54.611198 42.282425 54.174107 38.528591 57.1064 34.428982 z" stroke-linecap="round"/>
</g>
<g transform="matrix(1.7105 0 0 1.2474 278.5712 278.3404)" id="497611">
<path style="stroke: none; stroke-width: 1; stroke-dasharray: none; stroke-linecap: butt; stroke-dashoffset: 0; stroke-linejoin: miter; stroke-miterlimit: 4; is-custom-font: none; font-file-url: none; fill: rgb(65,45,36); fill-rule: nonzero; opacity: 1;" vector-effect="non-scaling-stroke" transform=" translate(-78.4998, -78.5)" d="M 78.5 0 C 52.9419 0 32.1166 35.2271 32.1166 78.5 C 32.1166 121.773 52.9419 157 78.5 157 C 104.058 157 124.883 121.773 124.883 78.5 C 124.883 35.2271 104.058 0 78.5 0 Z" stroke-linecap="round"/>
</g>
<g transform="matrix(2.8027 0 0 2.8693 258.1636 262.0749)" id="Layer_1">
<path style="stroke: none; stroke-width: 1; stroke-dasharray: none; stroke-linecap: butt; stroke-dashoffset: 0; stroke-linejoin: miter; stroke-miterlimit: 4; is-custom-font: none; font-file-url: none; fill: rgb(249,249,249); fill-rule: nonzero; opacity: 1;" transform=" translate(-93.8679, -30.3896)" d="M 103.343636 37.083099 C 101.017433 41.644615 97.689461 44.290157 92.855103 43.622871 C 87.712914 42.91309 84.837852 39.380726 83.595146 34.455551 C 83.514542 34.136086 83.350494 33.836601 83.280098 33.515793 C 82.101425 28.143759 84.391144 21.719749 88.541374 18.913757 C 91.871681 16.662123 95.44751 16.347694 98.809746 18.563606 C 103.755768 21.823326 105.148834 26.827873 104.678665 32.445461 C 104.556953 33.899673 103.923409 35.311054 103.343636 37.083099 z" stroke-linecap="round"/>
</g>
<g transform="matrix(2.8027 0 0 2.8693 309.6923 319.6963)" id="Layer_1">
<path style="stroke: none; stroke-width: 1; stroke-dasharray: none; stroke-linecap: butt; stroke-dashoffset: 0; stroke-linejoin: miter; stroke-miterlimit: 4; is-custom-font: none; font-file-url: none; fill: rgb(247,248,247); fill-rule: nonzero; opacity: 1;" transform=" translate(-112.2536, -50.472)" d="M 118.194763 53.102001 C 116.881477 56.551098 114.604485 59.008919 111.397835 57.78318 C 109.200783 56.943363 106.469238 54.165657 106.328369 52.094307 C 106.135292 49.255505 107.728683 45.949371 109.476089 43.499458 C 110.148369 42.556904 114.586266 42.659542 115.157318 43.596699 C 116.793327 46.281559 117.328026 49.637497 118.194763 53.102001 z" stroke-linecap="round"/>
</g>
<g transform="matrix(2.8027 0 0 2.8693 206.2284 312.5652)" id="Layer_1">
<path style="stroke: none; stroke-width: 1; stroke-dasharray: none; stroke-linecap: butt; stroke-dashoffset: 0; stroke-linejoin: miter; stroke-miterlimit: 4; is-custom-font: none; font-file-url: none; fill: rgb(120,43,41); fill-rule: nonzero; opacity: 1;" transform=" translate(-75.3374, -47.9867)" d="M 75.819862 48.794621 C 75.430603 48.511204 75.052841 47.934479 74.854919 47.17881 C 75.300293 47.500351 75.565826 48.000832 75.819862 48.794621 z" stroke-linecap="round"/>
</g>
<g transform="matrix(2.8027 0 0 2.8693 494.7166 563.179)" id="Layer_1">
<path style="stroke: none; stroke-width: 1; stroke-dasharray: none; stroke-linecap: butt; stroke-dashoffset: 0; stroke-linejoin: miter; stroke-miterlimit: 4; is-custom-font: none; font-file-url: none; fill: rgb(64,44,35); fill-rule: nonzero; opacity: 1;" transform=" translate(-178.2702, -135.3307)" d="M 240.456726 119.971893 C 238.710617 124.415955 236.503891 128.886551 233.873489 133.831604 C 232.955292 135.194519 232.46077 136.082962 231.966263 136.971405 C 231.966263 136.971405 231.996948 136.996994 231.693619 137.152191 C 226.341202 141.872604 221.292099 146.437805 216.090973 150.689529 C 198.98996 128.223404 160.445053 128.075516 140.684204 150.067383 C 138.681961 149.011032 136.797836 148.226608 135.456131 146.895477 C 130.879974 142.355423 126.49482 137.622849 122.036766 132.963745 C 120.066589 128.871445 118.096413 124.779152 116.083618 120.3284 C 157.35936 119.979431 198.677734 119.988922 240.456726 119.971893 z" stroke-linecap="round"/>
</g>
<g transform="matrix(2.8027 0 0 2.8693 186.0922 363.9532)" id="Layer_1">
<path style="stroke: none; stroke-width: 1; stroke-dasharray: none; stroke-linecap: butt; stroke-dashoffset: 0; stroke-linejoin: miter; stroke-miterlimit: 4; is-custom-font: none; font-file-url: none; fill: rgb(218,155,145); fill-rule: nonzero; opacity: 1;" transform=" translate(-68.1526, -65.8964)" d="M 74.042862 73.573944 C 73.492905 75.40432 72.910294 76.816017 72.13665 78.490738 C 70.168648 77.449699 67.483345 76.509651 66.787209 74.772484 C 64.800697 69.815254 63.296368 64.595436 62.306629 59.346127 C 61.964645 57.532318 63.694057 55.327961 64.477287 53.302002 C 66.132301 54.39806 67.787323 55.494118 69.708038 56.797737 C 70.912048 59.450264 71.850357 61.895233 72.954773 64.660873 C 73.41732 67.706123 73.71376 70.430695 74.042862 73.573944 z" stroke-linecap="round"/>
</g>
<g transform="matrix(2.8027 0 0 2.8693 490.7653 607.5906)" id="Layer_1">
<path style="stroke: none; stroke-width: 1; stroke-dasharray: none; stroke-linecap: butt; stroke-dashoffset: 0; stroke-linejoin: miter; stroke-miterlimit: 4; is-custom-font: none; font-file-url: none; fill: rgb(107,38,34); fill-rule: nonzero; opacity: 1;" transform=" translate(-176.8604, -150.8091)" d="M 216.242996 151.003006 C 221.292099 146.437805 226.341202 141.872604 231.680023 137.141342 C 228.470367 141.65889 225.592819 147.018585 221.363449 150.908508 C 203.492523 167.345093 182.429443 172.259613 159.319962 165.059906 C 144.6008 160.474182 132.523483 151.44899 124.116318 138.140945 C 123.251373 136.771774 122.727074 135.187393 122.040741 133.333313 C 126.49482 137.622849 130.879974 142.355423 135.456131 146.895477 C 136.797836 148.226608 138.681961 149.011032 140.733047 150.401993 C 141.827728 151.444611 142.41626 152.263824 143.199127 152.798553 C 164.432449 167.301666 195.53624 166.5242 216.242996 151.003006 z" stroke-linecap="round"/>
</g>
<g transform="matrix(2.8027 0 0 2.8693 648.1288 563.7216)" id="Layer_1">
<path style="stroke: none; stroke-width: 1; stroke-dasharray: none; stroke-linecap: butt; stroke-dashoffset: 0; stroke-linejoin: miter; stroke-miterlimit: 4; is-custom-font: none; font-file-url: none; fill: rgb(107,38,34); fill-rule: nonzero; opacity: 1;" transform=" translate(-233.0089, -135.5199)" d="M 232.295746 136.894257 C 232.46077 136.082962 232.955292 135.194519 233.722137 134.14563 C 233.538025 134.929153 233.081619 135.873138 232.295746 136.894257 z" stroke-linecap="round"/>
</g>
<g transform="matrix(2.8027 0 0 2.8693 495.6272 600.8179)" id="Layer_1">
<path style="stroke: none; stroke-width: 1; stroke-dasharray: none; stroke-linecap: butt; stroke-dashoffset: 0; stroke-linejoin: miter; stroke-miterlimit: 4; is-custom-font: none; font-file-url: none; fill: rgb(219,97,98); fill-rule: nonzero; opacity: 1;" transform=" translate(-178.5954, -148.4486)" d="M 216.090973 150.689529 C 195.53624 166.5242 164.432449 167.301666 143.199127 152.798553 C 142.41626 152.263824 141.827728 151.444611 141.099792 150.42334 C 160.445053 128.075516 198.98996 128.223404 216.090973 150.689529 z" stroke-linecap="round"/>
</g>
</svg>