<svg version="1.1" viewBox="0.0 0.0 907.0866141732283 907.0866141732283" fill="none" stroke="none" stroke-linecap="square" stroke-miterlimit="10" xmlns:xlink="http://www.w3.org/1999/xlink" xmlns="http://www.w3.org/2000/svg"><clipPath id="p.0"><path d="m0 0l907.0866 0l0 907.0866l-907.0866 0l0 -907.0866z" clip-rule="nonzero"/></clipPath><g clip-path="url(#p.0)"><path fill="#000000" fill-opacity="0.0" d="m0 0l907.0866 0l0 907.0866l-907.0866 0z" fill-rule="evenodd"/><path fill="#000000" fill-opacity="0.0" d="m862.23883 284.4147l0 0c0 122.660065 -77.263916 235.97812 -202.62299 297.1741c-125.35907 61.195984 -279.71808 60.948303 -404.80316 -0.64953613c-125.08507 -61.59784 -201.84276 -175.163 -201.29536 -297.8222l404.3593 1.2976379z" fill-rule="evenodd"/><path fill="#000000" fill-opacity="0.0" d="m862.23883 284.4147l0 0c0 122.660065 -77.263916 235.97812 -202.62299 297.1741c-125.35907 61.195984 -279.71808 60.948303 -404.80316 -0.64953613c-125.08507 -61.59784 -201.84276 -175.163 -201.29536 -297.8222" fill-rule="evenodd"/><path stroke="#000000" stroke-width="24.0" stroke-linejoin="round" stroke-linecap="butt" d="m862.23883 284.4147l0 0c0 122.660065 -77.263916 235.97812 -202.62299 297.1741c-125.35907 61.195984 -279.71808 60.948303 -404.80316 -0.64953613c-125.08507 -61.59784 -201.84276 -175.163 -201.29536 -297.8222" fill-rule="evenodd"/><g filter="url(#shadowFilter-p.1)"><use xlink:href="#p.1" transform="matrix(1.0 0.0 0.0 1.0 0.0 2.0)"/></g><defs><filter id="shadowFilter-p.1" filterUnits="userSpaceOnUse"><feGaussianBlur in="SourceAlpha" stdDeviation="2.0" result="blur"/><feComponentTransfer in="blur" color-interpolation-filters="sRGB"><feFuncR type="linear" slope="0" intercept="0.0"/><feFuncG type="linear" slope="0" intercept="0.0"/><feFuncB type="linear" slope="0" intercept="0.0"/><feFuncA type="linear" slope="0.5" intercept="0"/></feComponentTransfer></filter></defs><g id="p.1"><path fill="#000000" fill-opacity="0.0" d="m893.50745 287.21783l0 0c5.321533 135.24335 -76.73877 262.22388 -214.16724 331.40326c-137.42847 69.17938 -308.45233 69.59766 -446.351 1.0915527c-137.89865 -68.50604 -220.82489 -195.08304 -216.42714 -330.35016l438.51123 10.209625z" fill-rule="evenodd"/><path fill="#000000" fill-opacity="0.0" d="m893.50745 287.21783l0 0c5.321533 135.24335 -76.73877 262.22388 -214.16724 331.40326c-137.42847 69.17938 -308.45233 69.59766 -446.351 1.0915527c-137.89865 -68.50604 -220.82489 -195.08304 -216.42714 -330.35016" fill-rule="evenodd"/><path stroke="#000000" stroke-width="24.0" stroke-linejoin="round" stroke-linecap="butt" d="m893.50745 287.21783l0 0c5.321533 135.24335 -76.73877 262.22388 -214.16724 331.40326c-137.42847 69.17938 -308.45233 69.59766 -446.351 1.0915527c-137.89865 -68.50604 -220.82489 -195.08304 -216.42714 -330.35016" fill-rule="evenodd"/></g><path fill="#000000" d="m180.83989 282.34384l0 0c0 -51.932175 30.768967 -94.03151 68.72441 -94.03151l0 0c18.226837 0 35.707184 9.90686 48.59549 27.541199c12.888336 17.634323 20.128937 41.55159 20.128937 66.49031l0 0c0 51.93216 -30.768982 94.031494 -68.72443 94.031494l0 0c-37.955444 0 -68.72441 -42.099335 -68.72441 -94.031494z" fill-rule="evenodd"/><path stroke="#000000" stroke-width="12.0" stroke-linejoin="round" stroke-linecap="butt" d="m180.83989 282.34384l0 0c0 -51.932175 30.768967 -94.03151 68.72441 -94.03151l0 0c18.226837 0 35.707184 9.90686 48.59549 27.541199c12.888336 17.634323 20.128937 41.55159 20.128937 66.49031l0 0c0 51.93216 -30.768982 94.031494 -68.72443 94.031494l0 0c-37.955444 0 -68.72441 -42.099335 -68.72441 -94.031494z" fill-rule="evenodd"/><path fill="#000000" d="m575.87665 282.34384l0 0c0 -51.932175 30.768982 -94.03151 68.72443 -94.03151l0 0c18.226807 0 35.707153 9.90686 48.59546 27.541199c12.888367 17.634323 20.128906 41.55159 20.128906 66.49031l0 0c0 51.93216 -30.76892 94.031494 -68.724365 94.031494l0 0c-37.955444 0 -68.72443 -42.099335 -68.72443 -94.031494z" fill-rule="evenodd"/><path stroke="#000000" stroke-width="12.0" stroke-linejoin="round" stroke-linecap="butt" d="m575.87665 282.34384l0 0c0 -51.932175 30.768982 -94.03151 68.72443 -94.03151l0 0c18.226807 0 35.707153 9.90686 48.59546 27.541199c12.888367 17.634323 20.128906 41.55159 20.128906 66.49031l0 0c0 51.93216 -30.76892 94.031494 -68.724365 94.031494l0 0c-37.955444 0 -68.72443 -42.099335 -68.72443 -94.031494z" fill-rule="evenodd"/><path fill="#000000" fill-opacity="0.0" d="m593.105 434.19946l0 0c0 45.821075 -25.832092 88.15326 -67.74646 111.01898c-41.914307 22.865723 -93.528015 22.782898 -135.36035 -0.21716309c-41.832306 -23.000122 -67.51294 -65.41498 -67.34909 -111.23578l135.22757 0.43395996z" fill-rule="evenodd"/><path stroke="#000000" stroke-width="8.0" stroke-linejoin="round" stroke-linecap="butt" d="m593.105 434.19946l0 0c0 45.821075 -25.832092 88.15326 -67.74646 111.01898c-41.914307 22.865723 -93.528015 22.782898 -135.36035 -0.21716309c-41.832306 -23.000122 -67.51294 -65.41498 -67.34909 -111.23578l135.22757 0.43395996z" fill-rule="evenodd"/><path fill="#000000" fill-opacity="0.0" d="m326.2467 468.02625l262.99213 2.2992249" fill-rule="evenodd"/><path stroke="#000000" stroke-width="4.0" stroke-linejoin="round" stroke-linecap="butt" d="m326.2467 468.02625l262.99213 2.2992249" fill-rule="evenodd"/><path fill="#000000" d="m375.0656 528.3123l0 0c0 -18.777649 36.733795 -33.99997 82.04724 -33.99997l0 0c45.313446 0 82.04724 15.222321 82.04724 33.99997l0 0c0 18.77771 -36.733795 34.0 -82.04724 34.0l0 0c-45.313446 0 -82.04724 -15.22229 -82.04724 -34.0z" fill-rule="evenodd"/><path stroke="#000000" stroke-width="1.0" stroke-linejoin="round" stroke-linecap="butt" d="m375.0656 528.3123l0 0c0 -18.777649 36.733795 -33.99997 82.04724 -33.99997l0 0c45.313446 0 82.04724 15.222321 82.04724 33.99997l0 0c0 18.77771 -36.733795 34.0 -82.04724 34.0l0 0c-45.313446 0 -82.04724 -15.22229 -82.04724 -34.0z" fill-rule="evenodd"/><path fill="#000000" fill-opacity="0.0" d="m53.51733 283.11707l127.30708 -0.78738403" fill-rule="evenodd"/><path stroke="#000000" stroke-width="8.0" stroke-linejoin="round" stroke-linecap="butt" d="m53.51733 283.11707l127.30708 -0.78738403" fill-rule="evenodd"/><path fill="#000000" fill-opacity="0.0" d="m318.28873 282.34384l257.5748 0" fill-rule="evenodd"/><path stroke="#000000" stroke-width="8.0" stroke-linejoin="round" stroke-linecap="butt" d="m318.28873 282.34384l257.5748 0" fill-rule="evenodd"/><path fill="#000000" fill-opacity="0.0" d="m713.32544 282.34384l148.91339 2.0787354" fill-rule="evenodd"/><path stroke="#000000" stroke-width="8.0" stroke-linejoin="round" stroke-linecap="butt" d="m713.32544 282.34384l148.91339 2.0787354" fill-rule="evenodd"/></g></svg>