<svg id="Capa_1" data-name="Capa 1" xmlns="http://www.w3.org/2000/svg" viewBox="0 0 32 32"><defs><style>.cls-1{fill:none;stroke:#000;stroke-miterlimit:10;stroke-width:0.25px;}.cls-2{fill:#fdfdfd;}</style></defs><path d="M.77,8.39H.13C.13,18.24,7.24,26.23,16,26.23s15.87-8,15.87-17.84h-.66C31.21,17.84,24.4,25.5,16,25.5S.79,17.84.79,8.39"/><path d="M28.26,8.08C28.07,15.51,22.65,21.46,16,21.46S3.93,15.51,3.74,8.08h-1C2.75,16.31,8.68,23,16,23s13.25-6.67,13.25-14.9Z"/><path class="cls-1" d="M.77,8.39H.13C.13,18.24,7.24,26.23,16,26.23s15.87-8,15.87-17.84H29.25"/><path class="cls-1" d="M29.25,8.39h2C31.21,17.84,24.4,25.5,16,25.5S.79,17.84.79,8.39h2"/><path class="cls-1" d="M3.73,8.08h-1C2.75,16.31,8.68,23,16,23s13.25-6.67,13.25-14.9h-1"/><path class="cls-1" d="M28.27,7.66c0,7.63-5.49,13.8-12.27,13.8S3.73,15.29,3.73,7.66Z"/><ellipse cx="9.14" cy="8.99" rx="2.48" ry="3.02"/><ellipse class="cls-2" cx="8.41" cy="8.32" rx="0.97" ry="1.18"/><ellipse class="cls-2" cx="10.05" cy="10.09" rx="0.57" ry="0.69"/><ellipse cx="22.86" cy="8.79" rx="2.48" ry="3.02"/><ellipse class="cls-2" cx="22.12" cy="8.12" rx="0.97" ry="1.18"/><ellipse class="cls-2" cx="23.76" cy="9.89" rx="0.57" ry="0.69"/><path class="cls-1" d="M22.11,13.73A6.29,6.29,0,0,1,16,20.18a6.29,6.29,0,0,1-6.11-6.45Z"/><path class="cls-1" d="M21.6,16.31a6.67,6.67,0,0,0,.51-2.58H9.89a6.67,6.67,0,0,0,.51,2.58Z"/><path class="cls-1" d="M12.61,19.09a5.82,5.82,0,0,0,6.78,0A4.16,4.16,0,0,0,16,17.55,4.16,4.16,0,0,0,12.61,19.09Z"/></svg>