<svg version="1.1" viewBox="0.0 0.0 907.0866141732283 907.0866141732283" fill="none" stroke="none" stroke-linecap="square" stroke-miterlimit="10" xmlns:xlink="http://www.w3.org/1999/xlink" xmlns="http://www.w3.org/2000/svg"><clipPath id="p.0"><path d="m0 0l907.0866 0l0 907.0866l-907.0866 0l0 -907.0866z" clip-rule="nonzero"/></clipPath><g clip-path="url(#p.0)"><path fill="#000000" fill-opacity="0.0" d="m0 0l907.0866 0l0 907.0866l-907.0866 0z" fill-rule="evenodd"/><path fill="#000000" fill-opacity="0.0" d="m907.0735 255.46194l0 0c0 144.37756 -85.818665 277.7607 -225.06165 349.80057c-139.24304 72.03992 -310.7034 71.76477 -449.65918 -0.7214966c-138.95578 -72.48627 -224.24382 -206.14392 -223.67001 -350.52057l449.194 1.4415131z" fill-rule="evenodd"/><path stroke="#000000" stroke-width="4.0" stroke-linejoin="round" stroke-linecap="butt" d="m907.0735 255.46194l0 0c0 144.37756 -85.818665 277.7607 -225.06165 349.80057c-139.24304 72.03992 -310.7034 71.76477 -449.65918 -0.7214966c-138.95578 -72.48627 -224.24382 -206.14392 -223.67001 -350.52057l449.194 1.4415131z" fill-rule="evenodd"/><path fill="#000000" fill-opacity="0.0" d="m862.23883 284.4147l0 0c0 122.660065 -77.263916 235.97812 -202.62299 297.1741c-125.35907 61.195984 -279.71808 60.948303 -404.80316 -0.64953613c-125.08507 -61.59784 -201.84276 -175.163 -201.29536 -297.8222l404.3593 1.2976379z" fill-rule="evenodd"/><path stroke="#000000" stroke-width="8.0" stroke-linejoin="round" stroke-linecap="butt" d="m862.23883 284.4147l0 0c0 122.660065 -77.263916 235.97812 -202.62299 297.1741c-125.35907 61.195984 -279.71808 60.948303 -404.80316 -0.64953613c-125.08507 -61.59784 -201.84276 -175.163 -201.29536 -297.8222l404.3593 1.2976379z" fill-rule="evenodd"/><path fill="#000000" d="m180.83989 258.34384l0 0c0 -51.932175 30.768967 -94.03151 68.72441 -94.03151l0 0c18.226837 0 35.707184 9.90686 48.59549 27.541199c12.888336 17.634323 20.128937 41.551605 20.128937 66.49031l0 0c0 51.93216 -30.768982 94.031494 -68.72443 94.031494l0 0c-37.955444 0 -68.72441 -42.099335 -68.72441 -94.031494z" fill-rule="evenodd"/><path stroke="#000000" stroke-width="1.0" stroke-linejoin="round" stroke-linecap="butt" d="m180.83989 258.34384l0 0c0 -51.932175 30.768967 -94.03151 68.72441 -94.03151l0 0c18.226837 0 35.707184 9.90686 48.59549 27.541199c12.888336 17.634323 20.128937 41.551605 20.128937 66.49031l0 0c0 51.93216 -30.768982 94.031494 -68.72443 94.031494l0 0c-37.955444 0 -68.72441 -42.099335 -68.72441 -94.031494z" fill-rule="evenodd"/><path fill="#000000" d="m575.87665 258.34384l0 0c0 -51.932175 30.768982 -94.03151 68.72443 -94.03151l0 0c18.226807 0 35.707153 9.90686 48.59546 27.541199c12.888367 17.634323 20.128906 41.551605 20.128906 66.49031l0 0c0 51.93216 -30.76892 94.031494 -68.724365 94.031494l0 0c-37.955444 0 -68.72443 -42.099335 -68.72443 -94.031494z" fill-rule="evenodd"/><path stroke="#000000" stroke-width="1.0" stroke-linejoin="round" stroke-linecap="butt" d="m575.87665 258.34384l0 0c0 -51.932175 30.768982 -94.03151 68.72443 -94.03151l0 0c18.226807 0 35.707153 9.90686 48.59546 27.541199c12.888367 17.634323 20.128906 41.551605 20.128906 66.49031l0 0c0 51.93216 -30.76892 94.031494 -68.724365 94.031494l0 0c-37.955444 0 -68.72443 -42.099335 -68.72443 -94.031494z" fill-rule="evenodd"/><path fill="#000000" d="m593.105 434.19946l0 0c0 45.821075 -25.832092 88.15326 -67.74646 111.01898c-41.914307 22.865723 -93.528015 22.782898 -135.36035 -0.21716309c-41.832306 -23.000122 -67.51294 -65.41498 -67.34909 -111.23578l135.22757 0.43395996z" fill-rule="evenodd"/><path stroke="#000000" stroke-width="8.0" stroke-linejoin="round" stroke-linecap="butt" d="m593.105 434.19946l0 0c0 45.821075 -25.832092 88.15326 -67.74646 111.01898c-41.914307 22.865723 -93.528015 22.782898 -135.36035 -0.21716309c-41.832306 -23.000122 -67.51294 -65.41498 -67.34909 -111.23578l135.22757 0.43395996z" fill-rule="evenodd"/></g></svg>