<svg id="Capa_1" data-name="Capa 1" xmlns="http://www.w3.org/2000/svg" viewBox="0 0 256 256"><defs><style>.cls-1{fill:none;stroke:#000;stroke-miterlimit:10;}.cls-2{fill:#fdfdfd;}</style></defs><path class="cls-1" d="M234.86,66.58H256c0,79.52-57.31,144-128,144S0,146.1,0,66.58H5.17"/><path d="M5.17,66.58H0c0,79.52,57.31,144,128,144s128-64.46,128-144h-5.28c0,76.24-54.94,138-122.72,138S5.28,142.82,5.28,66.58"/><path class="cls-1" d="M234.86,66.58h15.86c0,76.24-54.94,138-122.72,138S5.28,142.82,5.28,66.58H21.14"/><path class="cls-1" d="M29,64.09H21.11C21.11,130.49,69,184.32,128,184.32S234.89,130.49,234.89,64.09h-8"/><path class="cls-1" d="M227,60.75c0,61.48-44.31,111.32-99,111.32S29,122.23,29,60.75Z"/><path d="M226.93,64.09c-1.57,59.94-45.26,108-98.93,108s-97.35-48-98.92-108h-8C21.11,130.49,69,184.32,128,184.32S234.89,130.49,234.89,64.09Z"/><ellipse cx="72.7" cy="71.44" rx="19.99" ry="24.4"/><ellipse class="cls-2" cx="66.76" cy="66.02" rx="7.8" ry="9.52"/><ellipse class="cls-2" cx="80.03" cy="80.31" rx="4.57" ry="5.58"/><ellipse cx="183.3" cy="69.85" rx="19.99" ry="24.4"/><ellipse class="cls-2" cx="177.37" cy="64.43" rx="7.8" ry="9.52"/><ellipse class="cls-2" cx="190.64" cy="78.72" rx="4.57" ry="5.58"/><path class="cls-1" d="M177.28,109.72c0,28.72-22.06,52-49.28,52s-49.28-23.28-49.28-52Z"/><path class="cls-1" d="M173.17,130.53a54.31,54.31,0,0,0,4.11-20.81H78.72a54.31,54.31,0,0,0,4.11,20.81Z"/><path class="cls-1" d="M100.63,153a47.14,47.14,0,0,0,54.74,0c-5.38-7.43-15.62-12.45-27.37-12.45S106,145.53,100.63,153Z"/></svg>